<mxfile host="app.diagrams.net" modified="2023-08-06T00:54:16.980Z" agent="Mozilla/5.0 (Windows NT 10.0; Win64; x64) AppleWebKit/537.36 (KHTML, like Gecko) Chrome/115.0.0.0 Safari/537.36 Edg/115.0.1901.188" etag="IgaKMniSYYqIYW2cykCM" version="21.6.6" type="github">
  <diagram name="第 1 页" id="t9mlwEgcXnynXTgt-zQa">
    <mxGraphModel dx="3447" dy="2114" grid="1" gridSize="10" guides="1" tooltips="1" connect="1" arrows="1" fold="1" page="1" pageScale="1" pageWidth="827" pageHeight="1169" math="0" shadow="0">
      <root>
        <mxCell id="0" />
        <mxCell id="1" parent="0" />
        <mxCell id="p5pr4pcypY8BXFdTyHFl-128" style="edgeStyle=orthogonalEdgeStyle;rounded=0;orthogonalLoop=1;jettySize=auto;html=1;entryX=0;entryY=0.5;entryDx=0;entryDy=0;strokeWidth=2;fillColor=#d5e8d4;strokeColor=#82b366;curved=1;" edge="1" parent="1" source="p5pr4pcypY8BXFdTyHFl-121" target="p5pr4pcypY8BXFdTyHFl-30">
          <mxGeometry relative="1" as="geometry" />
        </mxCell>
        <mxCell id="p5pr4pcypY8BXFdTyHFl-127" style="edgeStyle=orthogonalEdgeStyle;rounded=0;orthogonalLoop=1;jettySize=auto;html=1;entryX=0;entryY=0.5;entryDx=0;entryDy=0;strokeWidth=2;fillColor=#f8cecc;strokeColor=#b85450;curved=1;" edge="1" parent="1" source="p5pr4pcypY8BXFdTyHFl-106" target="p5pr4pcypY8BXFdTyHFl-112">
          <mxGeometry relative="1" as="geometry" />
        </mxCell>
        <mxCell id="gJwUaaOIH9GKqoacNyTL-9" value="项目管理过程组" style="swimlane;fontStyle=0;childLayout=stackLayout;horizontal=1;startSize=30;horizontalStack=0;resizeParent=1;resizeParentMax=0;resizeLast=0;collapsible=1;marginBottom=0;whiteSpace=wrap;html=1;fillColor=#FAE5C7;strokeColor=#0F8B8D;labelBackgroundColor=none;fontColor=#143642;rounded=1;" parent="1" vertex="1">
          <mxGeometry x="-980" y="1530" width="200" height="180" as="geometry" />
        </mxCell>
        <mxCell id="gJwUaaOIH9GKqoacNyTL-10" value="启动过程组" style="text;strokeColor=#0F8B8D;fillColor=#FAE5C7;align=left;verticalAlign=middle;spacingLeft=4;spacingRight=4;overflow=hidden;points=[[0,0.5],[1,0.5]];portConstraint=eastwest;rotatable=0;whiteSpace=wrap;html=1;fontColor=#143642;labelBackgroundColor=none;rounded=1;" parent="gJwUaaOIH9GKqoacNyTL-9" vertex="1">
          <mxGeometry y="30" width="200" height="30" as="geometry" />
        </mxCell>
        <mxCell id="gJwUaaOIH9GKqoacNyTL-13" value="规划过程组" style="text;strokeColor=#0F8B8D;fillColor=#FAE5C7;align=left;verticalAlign=middle;spacingLeft=4;spacingRight=4;overflow=hidden;points=[[0,0.5],[1,0.5]];portConstraint=eastwest;rotatable=0;whiteSpace=wrap;html=1;fontColor=#143642;labelBackgroundColor=none;rounded=1;" parent="gJwUaaOIH9GKqoacNyTL-9" vertex="1">
          <mxGeometry y="60" width="200" height="30" as="geometry" />
        </mxCell>
        <mxCell id="gJwUaaOIH9GKqoacNyTL-14" value="执行过程组" style="text;strokeColor=#0F8B8D;fillColor=#FAE5C7;align=left;verticalAlign=middle;spacingLeft=4;spacingRight=4;overflow=hidden;points=[[0,0.5],[1,0.5]];portConstraint=eastwest;rotatable=0;whiteSpace=wrap;html=1;fontColor=#143642;labelBackgroundColor=none;rounded=1;" parent="gJwUaaOIH9GKqoacNyTL-9" vertex="1">
          <mxGeometry y="90" width="200" height="30" as="geometry" />
        </mxCell>
        <mxCell id="gJwUaaOIH9GKqoacNyTL-17" value="监控过程组" style="text;strokeColor=#0F8B8D;fillColor=#FAE5C7;align=left;verticalAlign=middle;spacingLeft=4;spacingRight=4;overflow=hidden;points=[[0,0.5],[1,0.5]];portConstraint=eastwest;rotatable=0;whiteSpace=wrap;html=1;fontColor=#143642;labelBackgroundColor=none;rounded=1;" parent="gJwUaaOIH9GKqoacNyTL-9" vertex="1">
          <mxGeometry y="120" width="200" height="30" as="geometry" />
        </mxCell>
        <mxCell id="gJwUaaOIH9GKqoacNyTL-11" value="收尾过程组" style="text;strokeColor=#0F8B8D;fillColor=#FAE5C7;align=left;verticalAlign=middle;spacingLeft=4;spacingRight=4;overflow=hidden;points=[[0,0.5],[1,0.5]];portConstraint=eastwest;rotatable=0;whiteSpace=wrap;html=1;fontColor=#143642;labelBackgroundColor=none;rounded=1;" parent="gJwUaaOIH9GKqoacNyTL-9" vertex="1">
          <mxGeometry y="150" width="200" height="30" as="geometry" />
        </mxCell>
        <mxCell id="gJwUaaOIH9GKqoacNyTL-55" value="十大知识领域" style="swimlane;fontStyle=0;childLayout=stackLayout;horizontal=1;startSize=30;horizontalStack=0;resizeParent=1;resizeParentMax=0;resizeLast=0;collapsible=1;marginBottom=0;whiteSpace=wrap;html=1;fillColor=#FAE5C7;strokeColor=#0F8B8D;labelBackgroundColor=none;fontColor=#143642;rounded=1;" parent="1" vertex="1">
          <mxGeometry x="-950" y="1140" width="140" height="330" as="geometry" />
        </mxCell>
        <mxCell id="gJwUaaOIH9GKqoacNyTL-56" value="&lt;span style=&quot;background-color: initial;&quot;&gt;1、项目整合管理&lt;/span&gt;" style="text;strokeColor=#0F8B8D;fillColor=#FAE5C7;align=left;verticalAlign=middle;spacingLeft=4;spacingRight=4;overflow=hidden;points=[[0,0.5],[1,0.5]];portConstraint=eastwest;rotatable=0;whiteSpace=wrap;html=1;fontColor=#143642;labelBackgroundColor=none;rounded=1;" parent="gJwUaaOIH9GKqoacNyTL-55" vertex="1">
          <mxGeometry y="30" width="140" height="30" as="geometry" />
        </mxCell>
        <mxCell id="gJwUaaOIH9GKqoacNyTL-59" value="&lt;span style=&quot;background-color: initial;&quot;&gt;2、项目范围管理&lt;/span&gt;" style="text;strokeColor=#0F8B8D;fillColor=#FAE5C7;align=left;verticalAlign=middle;spacingLeft=4;spacingRight=4;overflow=hidden;points=[[0,0.5],[1,0.5]];portConstraint=eastwest;rotatable=0;whiteSpace=wrap;html=1;fontColor=#143642;labelBackgroundColor=none;rounded=1;" parent="gJwUaaOIH9GKqoacNyTL-55" vertex="1">
          <mxGeometry y="60" width="140" height="30" as="geometry" />
        </mxCell>
        <mxCell id="gJwUaaOIH9GKqoacNyTL-60" value="3、项目进度管理" style="text;strokeColor=#0F8B8D;fillColor=#FAE5C7;align=left;verticalAlign=middle;spacingLeft=4;spacingRight=4;overflow=hidden;points=[[0,0.5],[1,0.5]];portConstraint=eastwest;rotatable=0;whiteSpace=wrap;html=1;fontColor=#143642;labelBackgroundColor=none;rounded=1;" parent="gJwUaaOIH9GKqoacNyTL-55" vertex="1">
          <mxGeometry y="90" width="140" height="30" as="geometry" />
        </mxCell>
        <mxCell id="gJwUaaOIH9GKqoacNyTL-57" value="4、项目成本管理" style="text;strokeColor=#0F8B8D;fillColor=#FAE5C7;align=left;verticalAlign=middle;spacingLeft=4;spacingRight=4;overflow=hidden;points=[[0,0.5],[1,0.5]];portConstraint=eastwest;rotatable=0;whiteSpace=wrap;html=1;fontColor=#143642;labelBackgroundColor=none;rounded=1;" parent="gJwUaaOIH9GKqoacNyTL-55" vertex="1">
          <mxGeometry y="120" width="140" height="30" as="geometry" />
        </mxCell>
        <mxCell id="gJwUaaOIH9GKqoacNyTL-58" value="5、项目质量管理" style="text;strokeColor=#0F8B8D;fillColor=#FAE5C7;align=left;verticalAlign=middle;spacingLeft=4;spacingRight=4;overflow=hidden;points=[[0,0.5],[1,0.5]];portConstraint=eastwest;rotatable=0;whiteSpace=wrap;html=1;fontColor=#143642;labelBackgroundColor=none;rounded=1;" parent="gJwUaaOIH9GKqoacNyTL-55" vertex="1">
          <mxGeometry y="150" width="140" height="30" as="geometry" />
        </mxCell>
        <mxCell id="gJwUaaOIH9GKqoacNyTL-61" value="6、项目资源管理" style="text;strokeColor=#0F8B8D;fillColor=#FAE5C7;align=left;verticalAlign=middle;spacingLeft=4;spacingRight=4;overflow=hidden;points=[[0,0.5],[1,0.5]];portConstraint=eastwest;rotatable=0;whiteSpace=wrap;html=1;fontColor=#143642;labelBackgroundColor=none;rounded=1;" parent="gJwUaaOIH9GKqoacNyTL-55" vertex="1">
          <mxGeometry y="180" width="140" height="30" as="geometry" />
        </mxCell>
        <mxCell id="gJwUaaOIH9GKqoacNyTL-62" value="7、项目沟通管理" style="text;strokeColor=#0F8B8D;fillColor=#FAE5C7;align=left;verticalAlign=middle;spacingLeft=4;spacingRight=4;overflow=hidden;points=[[0,0.5],[1,0.5]];portConstraint=eastwest;rotatable=0;whiteSpace=wrap;html=1;fontColor=#143642;labelBackgroundColor=none;rounded=1;" parent="gJwUaaOIH9GKqoacNyTL-55" vertex="1">
          <mxGeometry y="210" width="140" height="30" as="geometry" />
        </mxCell>
        <mxCell id="gJwUaaOIH9GKqoacNyTL-63" value="8、项目风险管理" style="text;strokeColor=#0F8B8D;fillColor=#FAE5C7;align=left;verticalAlign=middle;spacingLeft=4;spacingRight=4;overflow=hidden;points=[[0,0.5],[1,0.5]];portConstraint=eastwest;rotatable=0;whiteSpace=wrap;html=1;fontColor=#143642;labelBackgroundColor=none;rounded=1;" parent="gJwUaaOIH9GKqoacNyTL-55" vertex="1">
          <mxGeometry y="240" width="140" height="30" as="geometry" />
        </mxCell>
        <mxCell id="gJwUaaOIH9GKqoacNyTL-64" value="9、项目采购管理" style="text;strokeColor=#0F8B8D;fillColor=#FAE5C7;align=left;verticalAlign=middle;spacingLeft=4;spacingRight=4;overflow=hidden;points=[[0,0.5],[1,0.5]];portConstraint=eastwest;rotatable=0;whiteSpace=wrap;html=1;fontColor=#143642;labelBackgroundColor=none;rounded=1;" parent="gJwUaaOIH9GKqoacNyTL-55" vertex="1">
          <mxGeometry y="270" width="140" height="30" as="geometry" />
        </mxCell>
        <mxCell id="gJwUaaOIH9GKqoacNyTL-65" value="10、项目干系人管理" style="text;strokeColor=#0F8B8D;fillColor=#FAE5C7;align=left;verticalAlign=middle;spacingLeft=4;spacingRight=4;overflow=hidden;points=[[0,0.5],[1,0.5]];portConstraint=eastwest;rotatable=0;whiteSpace=wrap;html=1;fontColor=#143642;labelBackgroundColor=none;rounded=1;" parent="gJwUaaOIH9GKqoacNyTL-55" vertex="1">
          <mxGeometry y="300" width="140" height="30" as="geometry" />
        </mxCell>
        <mxCell id="gJwUaaOIH9GKqoacNyTL-102" value="范围管理计划" style="text;html=1;strokeColor=#0F8B8D;fillColor=none;align=center;verticalAlign=middle;whiteSpace=wrap;rounded=1;labelBackgroundColor=none;fontColor=#143642;" parent="1" vertex="1">
          <mxGeometry x="-820" y="1770" width="90" height="30" as="geometry" />
        </mxCell>
        <mxCell id="gJwUaaOIH9GKqoacNyTL-103" value="需求管理计划" style="text;html=1;strokeColor=#0F8B8D;fillColor=none;align=center;verticalAlign=middle;whiteSpace=wrap;rounded=1;labelBackgroundColor=none;fontColor=#143642;" parent="1" vertex="1">
          <mxGeometry x="-820" y="1800" width="90" height="30" as="geometry" />
        </mxCell>
        <mxCell id="gJwUaaOIH9GKqoacNyTL-104" value="进度管理计划" style="text;html=1;strokeColor=#0F8B8D;fillColor=none;align=center;verticalAlign=middle;whiteSpace=wrap;rounded=1;labelBackgroundColor=none;fontColor=#143642;" parent="1" vertex="1">
          <mxGeometry x="-820" y="1830" width="90" height="30" as="geometry" />
        </mxCell>
        <mxCell id="gJwUaaOIH9GKqoacNyTL-109" value="成本管理计划" style="text;html=1;align=center;verticalAlign=middle;resizable=0;points=[];autosize=1;strokeColor=#0F8B8D;fillColor=none;labelBackgroundColor=none;fontColor=#143642;rounded=1;" parent="1" vertex="1">
          <mxGeometry x="-820" y="1860" width="100" height="30" as="geometry" />
        </mxCell>
        <mxCell id="gJwUaaOIH9GKqoacNyTL-110" value="质量管理计划" style="text;html=1;align=center;verticalAlign=middle;resizable=0;points=[];autosize=1;strokeColor=#0F8B8D;fillColor=none;labelBackgroundColor=none;fontColor=#143642;rounded=1;" parent="1" vertex="1">
          <mxGeometry x="-820" y="1890" width="100" height="30" as="geometry" />
        </mxCell>
        <mxCell id="gJwUaaOIH9GKqoacNyTL-111" value="资源管理计划" style="text;html=1;align=center;verticalAlign=middle;resizable=0;points=[];autosize=1;strokeColor=#0F8B8D;fillColor=none;labelBackgroundColor=none;fontColor=#143642;rounded=1;" parent="1" vertex="1">
          <mxGeometry x="-820" y="1920" width="100" height="30" as="geometry" />
        </mxCell>
        <mxCell id="gJwUaaOIH9GKqoacNyTL-112" value="沟通管理计划" style="text;html=1;align=center;verticalAlign=middle;resizable=0;points=[];autosize=1;strokeColor=#0F8B8D;fillColor=none;labelBackgroundColor=none;fontColor=#143642;rounded=1;" parent="1" vertex="1">
          <mxGeometry x="-820" y="1950" width="100" height="30" as="geometry" />
        </mxCell>
        <mxCell id="gJwUaaOIH9GKqoacNyTL-113" value="风险管理计划" style="text;html=1;align=center;verticalAlign=middle;resizable=0;points=[];autosize=1;strokeColor=#0F8B8D;fillColor=none;labelBackgroundColor=none;fontColor=#143642;rounded=1;" parent="1" vertex="1">
          <mxGeometry x="-820" y="1980" width="100" height="30" as="geometry" />
        </mxCell>
        <mxCell id="gJwUaaOIH9GKqoacNyTL-114" value="采购管理计划" style="text;html=1;align=center;verticalAlign=middle;resizable=0;points=[];autosize=1;strokeColor=#0F8B8D;fillColor=none;labelBackgroundColor=none;fontColor=#143642;rounded=1;" parent="1" vertex="1">
          <mxGeometry x="-820" y="2010" width="100" height="30" as="geometry" />
        </mxCell>
        <mxCell id="gJwUaaOIH9GKqoacNyTL-115" value="干系人参与计划" style="text;html=1;align=center;verticalAlign=middle;resizable=0;points=[];autosize=1;strokeColor=#0F8B8D;fillColor=none;labelBackgroundColor=none;fontColor=#143642;rounded=1;" parent="1" vertex="1">
          <mxGeometry x="-820" y="2040" width="110" height="30" as="geometry" />
        </mxCell>
        <mxCell id="gJwUaaOIH9GKqoacNyTL-116" value="变更管理计划" style="text;html=1;align=center;verticalAlign=middle;resizable=0;points=[];autosize=1;strokeColor=#0F8B8D;fillColor=none;labelBackgroundColor=none;fontColor=#143642;rounded=1;" parent="1" vertex="1">
          <mxGeometry x="-820" y="2070" width="100" height="30" as="geometry" />
        </mxCell>
        <mxCell id="gJwUaaOIH9GKqoacNyTL-117" value="配置管理计划" style="text;html=1;align=center;verticalAlign=middle;resizable=0;points=[];autosize=1;strokeColor=#0F8B8D;fillColor=none;labelBackgroundColor=none;fontColor=#143642;rounded=1;" parent="1" vertex="1">
          <mxGeometry x="-820" y="2100" width="100" height="30" as="geometry" />
        </mxCell>
        <mxCell id="gJwUaaOIH9GKqoacNyTL-118" value="范围基准" style="text;html=1;align=center;verticalAlign=middle;resizable=0;points=[];autosize=1;strokeColor=#0F8B8D;fillColor=none;labelBackgroundColor=none;fontColor=#143642;rounded=1;" parent="1" vertex="1">
          <mxGeometry x="-820" y="2130" width="70" height="30" as="geometry" />
        </mxCell>
        <mxCell id="gJwUaaOIH9GKqoacNyTL-119" value="进度基准" style="text;html=1;align=center;verticalAlign=middle;resizable=0;points=[];autosize=1;strokeColor=#0F8B8D;fillColor=none;labelBackgroundColor=none;fontColor=#143642;rounded=1;" parent="1" vertex="1">
          <mxGeometry x="-820" y="2160" width="70" height="30" as="geometry" />
        </mxCell>
        <mxCell id="gJwUaaOIH9GKqoacNyTL-120" value="成本基准" style="text;html=1;align=center;verticalAlign=middle;resizable=0;points=[];autosize=1;strokeColor=#0F8B8D;fillColor=none;labelBackgroundColor=none;fontColor=#143642;rounded=1;" parent="1" vertex="1">
          <mxGeometry x="-820" y="2190" width="70" height="30" as="geometry" />
        </mxCell>
        <mxCell id="gJwUaaOIH9GKqoacNyTL-121" value="绩效测量基准" style="text;html=1;align=center;verticalAlign=middle;resizable=0;points=[];autosize=1;strokeColor=#0F8B8D;fillColor=none;labelBackgroundColor=none;fontColor=#143642;rounded=1;" parent="1" vertex="1">
          <mxGeometry x="-820" y="2220" width="100" height="30" as="geometry" />
        </mxCell>
        <mxCell id="gJwUaaOIH9GKqoacNyTL-122" value="项目生命周期描述" style="text;html=1;align=center;verticalAlign=middle;resizable=0;points=[];autosize=1;strokeColor=#0F8B8D;fillColor=none;labelBackgroundColor=none;fontColor=#143642;rounded=1;" parent="1" vertex="1">
          <mxGeometry x="-820" y="2250" width="120" height="30" as="geometry" />
        </mxCell>
        <mxCell id="gJwUaaOIH9GKqoacNyTL-123" value="开发方法" style="text;html=1;align=center;verticalAlign=middle;resizable=0;points=[];autosize=1;strokeColor=#0F8B8D;fillColor=none;labelBackgroundColor=none;fontColor=#143642;rounded=1;" parent="1" vertex="1">
          <mxGeometry x="-820" y="2280" width="70" height="30" as="geometry" />
        </mxCell>
        <mxCell id="gJwUaaOIH9GKqoacNyTL-138" value="1、项目整合管理" style="swimlane;whiteSpace=wrap;html=1;labelBackgroundColor=none;fillColor=#FAE5C7;strokeColor=#0F8B8D;fontColor=#143642;rounded=1;" parent="1" vertex="1">
          <mxGeometry x="-660" y="880" width="270" height="910" as="geometry">
            <mxRectangle x="-170" y="-280" width="130" height="30" as="alternateBounds" />
          </mxGeometry>
        </mxCell>
        <mxCell id="gJwUaaOIH9GKqoacNyTL-70" value="制定项目章程" style="swimlane;fontStyle=0;childLayout=stackLayout;horizontal=1;startSize=30;horizontalStack=0;resizeParent=1;resizeParentMax=0;resizeLast=0;collapsible=1;marginBottom=0;whiteSpace=wrap;html=1;fillColor=#FAE5C7;strokeColor=#0F8B8D;fontColor=#143642;swimlaneFillColor=none;labelBackgroundColor=none;rounded=1;" parent="gJwUaaOIH9GKqoacNyTL-138" vertex="1">
          <mxGeometry x="50" y="70" width="140" height="120" as="geometry">
            <mxRectangle x="-60" y="-40" width="110" height="30" as="alternateBounds" />
          </mxGeometry>
        </mxCell>
        <mxCell id="gJwUaaOIH9GKqoacNyTL-71" value="Item 1" style="text;strokeColor=none;fillColor=none;align=left;verticalAlign=middle;spacingLeft=4;spacingRight=4;overflow=hidden;points=[[0,0.5],[1,0.5]];portConstraint=eastwest;rotatable=0;whiteSpace=wrap;html=1;labelBackgroundColor=none;fontColor=#143642;rounded=1;" parent="gJwUaaOIH9GKqoacNyTL-70" vertex="1">
          <mxGeometry y="30" width="140" height="30" as="geometry" />
        </mxCell>
        <mxCell id="gJwUaaOIH9GKqoacNyTL-72" value="Item 2" style="text;strokeColor=none;fillColor=none;align=left;verticalAlign=middle;spacingLeft=4;spacingRight=4;overflow=hidden;points=[[0,0.5],[1,0.5]];portConstraint=eastwest;rotatable=0;whiteSpace=wrap;html=1;labelBackgroundColor=none;fontColor=#143642;rounded=1;" parent="gJwUaaOIH9GKqoacNyTL-70" vertex="1">
          <mxGeometry y="60" width="140" height="30" as="geometry" />
        </mxCell>
        <mxCell id="gJwUaaOIH9GKqoacNyTL-73" value="Item 3" style="text;strokeColor=none;fillColor=none;align=left;verticalAlign=middle;spacingLeft=4;spacingRight=4;overflow=hidden;points=[[0,0.5],[1,0.5]];portConstraint=eastwest;rotatable=0;whiteSpace=wrap;html=1;labelBackgroundColor=none;fontColor=#143642;rounded=1;" parent="gJwUaaOIH9GKqoacNyTL-70" vertex="1">
          <mxGeometry y="90" width="140" height="30" as="geometry" />
        </mxCell>
        <mxCell id="gJwUaaOIH9GKqoacNyTL-74" value="制定项目管理计划" style="swimlane;fontStyle=0;childLayout=stackLayout;horizontal=1;startSize=30;horizontalStack=0;resizeParent=1;resizeParentMax=0;resizeLast=0;collapsible=1;marginBottom=0;whiteSpace=wrap;html=1;fillColor=#FAE5C7;strokeColor=#0F8B8D;fontColor=#143642;swimlaneFillColor=none;labelBackgroundColor=none;rounded=1;" parent="gJwUaaOIH9GKqoacNyTL-138" vertex="1">
          <mxGeometry x="50" y="190" width="140" height="120" as="geometry">
            <mxRectangle x="-60" y="80" width="140" height="30" as="alternateBounds" />
          </mxGeometry>
        </mxCell>
        <mxCell id="gJwUaaOIH9GKqoacNyTL-75" value="Item 1" style="text;strokeColor=none;fillColor=none;align=left;verticalAlign=middle;spacingLeft=4;spacingRight=4;overflow=hidden;points=[[0,0.5],[1,0.5]];portConstraint=eastwest;rotatable=0;whiteSpace=wrap;html=1;labelBackgroundColor=none;fontColor=#143642;rounded=1;" parent="gJwUaaOIH9GKqoacNyTL-74" vertex="1">
          <mxGeometry y="30" width="140" height="30" as="geometry" />
        </mxCell>
        <mxCell id="gJwUaaOIH9GKqoacNyTL-76" value="Item 2" style="text;strokeColor=none;fillColor=none;align=left;verticalAlign=middle;spacingLeft=4;spacingRight=4;overflow=hidden;points=[[0,0.5],[1,0.5]];portConstraint=eastwest;rotatable=0;whiteSpace=wrap;html=1;labelBackgroundColor=none;fontColor=#143642;rounded=1;" parent="gJwUaaOIH9GKqoacNyTL-74" vertex="1">
          <mxGeometry y="60" width="140" height="30" as="geometry" />
        </mxCell>
        <mxCell id="gJwUaaOIH9GKqoacNyTL-77" value="Item 3" style="text;strokeColor=none;fillColor=none;align=left;verticalAlign=middle;spacingLeft=4;spacingRight=4;overflow=hidden;points=[[0,0.5],[1,0.5]];portConstraint=eastwest;rotatable=0;whiteSpace=wrap;html=1;labelBackgroundColor=none;fontColor=#143642;rounded=1;" parent="gJwUaaOIH9GKqoacNyTL-74" vertex="1">
          <mxGeometry y="90" width="140" height="30" as="geometry" />
        </mxCell>
        <mxCell id="gJwUaaOIH9GKqoacNyTL-78" value="指导与管理项目工作" style="swimlane;fontStyle=0;childLayout=stackLayout;horizontal=1;startSize=30;horizontalStack=0;resizeParent=1;resizeParentMax=0;resizeLast=0;collapsible=1;marginBottom=0;whiteSpace=wrap;html=1;fillColor=#FAE5C7;strokeColor=#0F8B8D;fontColor=#143642;swimlaneFillColor=none;labelBackgroundColor=none;rounded=1;" parent="gJwUaaOIH9GKqoacNyTL-138" vertex="1">
          <mxGeometry x="50" y="310" width="140" height="120" as="geometry">
            <mxRectangle x="-60" y="20" width="150" height="30" as="alternateBounds" />
          </mxGeometry>
        </mxCell>
        <mxCell id="gJwUaaOIH9GKqoacNyTL-79" value="Item 1" style="text;strokeColor=none;fillColor=none;align=left;verticalAlign=middle;spacingLeft=4;spacingRight=4;overflow=hidden;points=[[0,0.5],[1,0.5]];portConstraint=eastwest;rotatable=0;whiteSpace=wrap;html=1;labelBackgroundColor=none;fontColor=#143642;rounded=1;" parent="gJwUaaOIH9GKqoacNyTL-78" vertex="1">
          <mxGeometry y="30" width="140" height="30" as="geometry" />
        </mxCell>
        <mxCell id="gJwUaaOIH9GKqoacNyTL-80" value="Item 2" style="text;strokeColor=none;fillColor=none;align=left;verticalAlign=middle;spacingLeft=4;spacingRight=4;overflow=hidden;points=[[0,0.5],[1,0.5]];portConstraint=eastwest;rotatable=0;whiteSpace=wrap;html=1;labelBackgroundColor=none;fontColor=#143642;rounded=1;" parent="gJwUaaOIH9GKqoacNyTL-78" vertex="1">
          <mxGeometry y="60" width="140" height="30" as="geometry" />
        </mxCell>
        <mxCell id="gJwUaaOIH9GKqoacNyTL-81" value="Item 3" style="text;strokeColor=none;fillColor=none;align=left;verticalAlign=middle;spacingLeft=4;spacingRight=4;overflow=hidden;points=[[0,0.5],[1,0.5]];portConstraint=eastwest;rotatable=0;whiteSpace=wrap;html=1;labelBackgroundColor=none;fontColor=#143642;rounded=1;" parent="gJwUaaOIH9GKqoacNyTL-78" vertex="1">
          <mxGeometry y="90" width="140" height="30" as="geometry" />
        </mxCell>
        <mxCell id="gJwUaaOIH9GKqoacNyTL-86" value="管理项目知识" style="swimlane;fontStyle=0;childLayout=stackLayout;horizontal=1;startSize=30;horizontalStack=0;resizeParent=1;resizeParentMax=0;resizeLast=0;collapsible=1;marginBottom=0;whiteSpace=wrap;html=1;fillColor=#FAE5C7;strokeColor=#0F8B8D;fontColor=#143642;labelBackgroundColor=none;rounded=1;" parent="gJwUaaOIH9GKqoacNyTL-138" vertex="1">
          <mxGeometry x="50" y="430" width="140" height="120" as="geometry">
            <mxRectangle x="-60" y="320" width="110" height="30" as="alternateBounds" />
          </mxGeometry>
        </mxCell>
        <mxCell id="gJwUaaOIH9GKqoacNyTL-87" value="Item 1" style="text;strokeColor=none;fillColor=none;align=left;verticalAlign=middle;spacingLeft=4;spacingRight=4;overflow=hidden;points=[[0,0.5],[1,0.5]];portConstraint=eastwest;rotatable=0;whiteSpace=wrap;html=1;labelBackgroundColor=none;fontColor=#143642;rounded=1;" parent="gJwUaaOIH9GKqoacNyTL-86" vertex="1">
          <mxGeometry y="30" width="140" height="30" as="geometry" />
        </mxCell>
        <mxCell id="gJwUaaOIH9GKqoacNyTL-88" value="Item 2" style="text;strokeColor=none;fillColor=none;align=left;verticalAlign=middle;spacingLeft=4;spacingRight=4;overflow=hidden;points=[[0,0.5],[1,0.5]];portConstraint=eastwest;rotatable=0;whiteSpace=wrap;html=1;labelBackgroundColor=none;fontColor=#143642;rounded=1;" parent="gJwUaaOIH9GKqoacNyTL-86" vertex="1">
          <mxGeometry y="60" width="140" height="30" as="geometry" />
        </mxCell>
        <mxCell id="gJwUaaOIH9GKqoacNyTL-89" value="Item 3" style="text;strokeColor=none;fillColor=none;align=left;verticalAlign=middle;spacingLeft=4;spacingRight=4;overflow=hidden;points=[[0,0.5],[1,0.5]];portConstraint=eastwest;rotatable=0;whiteSpace=wrap;html=1;labelBackgroundColor=none;fontColor=#143642;rounded=1;" parent="gJwUaaOIH9GKqoacNyTL-86" vertex="1">
          <mxGeometry y="90" width="140" height="30" as="geometry" />
        </mxCell>
        <mxCell id="gJwUaaOIH9GKqoacNyTL-90" value="监控项目工作" style="swimlane;fontStyle=0;childLayout=stackLayout;horizontal=1;startSize=30;horizontalStack=0;resizeParent=1;resizeParentMax=0;resizeLast=0;collapsible=1;marginBottom=0;whiteSpace=wrap;html=1;fillColor=#FAE5C7;strokeColor=#0F8B8D;fontColor=#143642;labelBackgroundColor=none;rounded=1;" parent="gJwUaaOIH9GKqoacNyTL-138" vertex="1">
          <mxGeometry x="50" y="550" width="140" height="120" as="geometry">
            <mxRectangle x="-60" y="440" width="110" height="30" as="alternateBounds" />
          </mxGeometry>
        </mxCell>
        <mxCell id="gJwUaaOIH9GKqoacNyTL-91" value="Item 1" style="text;strokeColor=none;fillColor=none;align=left;verticalAlign=middle;spacingLeft=4;spacingRight=4;overflow=hidden;points=[[0,0.5],[1,0.5]];portConstraint=eastwest;rotatable=0;whiteSpace=wrap;html=1;labelBackgroundColor=none;fontColor=#143642;rounded=1;" parent="gJwUaaOIH9GKqoacNyTL-90" vertex="1">
          <mxGeometry y="30" width="140" height="30" as="geometry" />
        </mxCell>
        <mxCell id="gJwUaaOIH9GKqoacNyTL-92" value="Item 2" style="text;strokeColor=none;fillColor=none;align=left;verticalAlign=middle;spacingLeft=4;spacingRight=4;overflow=hidden;points=[[0,0.5],[1,0.5]];portConstraint=eastwest;rotatable=0;whiteSpace=wrap;html=1;labelBackgroundColor=none;fontColor=#143642;rounded=1;" parent="gJwUaaOIH9GKqoacNyTL-90" vertex="1">
          <mxGeometry y="60" width="140" height="30" as="geometry" />
        </mxCell>
        <mxCell id="gJwUaaOIH9GKqoacNyTL-93" value="Item 3" style="text;strokeColor=none;fillColor=none;align=left;verticalAlign=middle;spacingLeft=4;spacingRight=4;overflow=hidden;points=[[0,0.5],[1,0.5]];portConstraint=eastwest;rotatable=0;whiteSpace=wrap;html=1;labelBackgroundColor=none;fontColor=#143642;rounded=1;" parent="gJwUaaOIH9GKqoacNyTL-90" vertex="1">
          <mxGeometry y="90" width="140" height="30" as="geometry" />
        </mxCell>
        <mxCell id="gJwUaaOIH9GKqoacNyTL-94" value="实施整体变更控制" style="swimlane;fontStyle=0;childLayout=stackLayout;horizontal=1;startSize=30;horizontalStack=0;resizeParent=1;resizeParentMax=0;resizeLast=0;collapsible=1;marginBottom=0;whiteSpace=wrap;html=1;fillColor=#FAE5C7;strokeColor=#0F8B8D;fontColor=#143642;labelBackgroundColor=none;rounded=1;" parent="gJwUaaOIH9GKqoacNyTL-138" vertex="1">
          <mxGeometry x="50" y="670" width="140" height="120" as="geometry">
            <mxRectangle x="-60" y="560" width="140" height="30" as="alternateBounds" />
          </mxGeometry>
        </mxCell>
        <mxCell id="gJwUaaOIH9GKqoacNyTL-95" value="Item 1" style="text;strokeColor=none;fillColor=none;align=left;verticalAlign=middle;spacingLeft=4;spacingRight=4;overflow=hidden;points=[[0,0.5],[1,0.5]];portConstraint=eastwest;rotatable=0;whiteSpace=wrap;html=1;labelBackgroundColor=none;fontColor=#143642;rounded=1;" parent="gJwUaaOIH9GKqoacNyTL-94" vertex="1">
          <mxGeometry y="30" width="140" height="30" as="geometry" />
        </mxCell>
        <mxCell id="gJwUaaOIH9GKqoacNyTL-96" value="Item 2" style="text;strokeColor=none;fillColor=none;align=left;verticalAlign=middle;spacingLeft=4;spacingRight=4;overflow=hidden;points=[[0,0.5],[1,0.5]];portConstraint=eastwest;rotatable=0;whiteSpace=wrap;html=1;labelBackgroundColor=none;fontColor=#143642;rounded=1;" parent="gJwUaaOIH9GKqoacNyTL-94" vertex="1">
          <mxGeometry y="60" width="140" height="30" as="geometry" />
        </mxCell>
        <mxCell id="gJwUaaOIH9GKqoacNyTL-97" value="Item 3" style="text;strokeColor=none;fillColor=none;align=left;verticalAlign=middle;spacingLeft=4;spacingRight=4;overflow=hidden;points=[[0,0.5],[1,0.5]];portConstraint=eastwest;rotatable=0;whiteSpace=wrap;html=1;labelBackgroundColor=none;fontColor=#143642;rounded=1;" parent="gJwUaaOIH9GKqoacNyTL-94" vertex="1">
          <mxGeometry y="90" width="140" height="30" as="geometry" />
        </mxCell>
        <mxCell id="gJwUaaOIH9GKqoacNyTL-98" value="结束项目或阶段" style="swimlane;fontStyle=0;childLayout=stackLayout;horizontal=1;startSize=30;horizontalStack=0;resizeParent=1;resizeParentMax=0;resizeLast=0;collapsible=1;marginBottom=0;whiteSpace=wrap;html=1;fillColor=#FAE5C7;strokeColor=#0F8B8D;fontColor=#143642;labelBackgroundColor=none;rounded=1;" parent="gJwUaaOIH9GKqoacNyTL-138" vertex="1">
          <mxGeometry x="50" y="790" width="140" height="120" as="geometry">
            <mxRectangle x="-60" y="680" width="120" height="30" as="alternateBounds" />
          </mxGeometry>
        </mxCell>
        <mxCell id="gJwUaaOIH9GKqoacNyTL-99" value="Item 1" style="text;strokeColor=none;fillColor=none;align=left;verticalAlign=middle;spacingLeft=4;spacingRight=4;overflow=hidden;points=[[0,0.5],[1,0.5]];portConstraint=eastwest;rotatable=0;whiteSpace=wrap;html=1;labelBackgroundColor=none;fontColor=#143642;rounded=1;" parent="gJwUaaOIH9GKqoacNyTL-98" vertex="1">
          <mxGeometry y="30" width="140" height="30" as="geometry" />
        </mxCell>
        <mxCell id="gJwUaaOIH9GKqoacNyTL-100" value="Item 2" style="text;strokeColor=none;fillColor=none;align=left;verticalAlign=middle;spacingLeft=4;spacingRight=4;overflow=hidden;points=[[0,0.5],[1,0.5]];portConstraint=eastwest;rotatable=0;whiteSpace=wrap;html=1;labelBackgroundColor=none;fontColor=#143642;rounded=1;" parent="gJwUaaOIH9GKqoacNyTL-98" vertex="1">
          <mxGeometry y="60" width="140" height="30" as="geometry" />
        </mxCell>
        <mxCell id="gJwUaaOIH9GKqoacNyTL-101" value="Item 3" style="text;strokeColor=none;fillColor=none;align=left;verticalAlign=middle;spacingLeft=4;spacingRight=4;overflow=hidden;points=[[0,0.5],[1,0.5]];portConstraint=eastwest;rotatable=0;whiteSpace=wrap;html=1;labelBackgroundColor=none;fontColor=#143642;rounded=1;" parent="gJwUaaOIH9GKqoacNyTL-98" vertex="1">
          <mxGeometry y="90" width="140" height="30" as="geometry" />
        </mxCell>
        <mxCell id="gJwUaaOIH9GKqoacNyTL-139" value="1、项目范围管理" style="swimlane;whiteSpace=wrap;html=1;labelBackgroundColor=none;fillColor=#FAE5C7;strokeColor=#0F8B8D;fontColor=#143642;rounded=1;" parent="1" vertex="1">
          <mxGeometry x="-360" y="880" width="270" height="910" as="geometry">
            <mxRectangle x="-170" y="-280" width="130" height="30" as="alternateBounds" />
          </mxGeometry>
        </mxCell>
        <mxCell id="gJwUaaOIH9GKqoacNyTL-140" value="规划范围管理" style="swimlane;fontStyle=0;childLayout=stackLayout;horizontal=1;startSize=30;horizontalStack=0;resizeParent=1;resizeParentMax=0;resizeLast=0;collapsible=1;marginBottom=0;whiteSpace=wrap;html=1;fillColor=#FAE5C7;strokeColor=#0F8B8D;fontColor=#143642;swimlaneFillColor=none;labelBackgroundColor=none;rounded=1;" parent="gJwUaaOIH9GKqoacNyTL-139" vertex="1">
          <mxGeometry x="50" y="70" width="140" height="120" as="geometry">
            <mxRectangle x="-60" y="-40" width="110" height="30" as="alternateBounds" />
          </mxGeometry>
        </mxCell>
        <mxCell id="gJwUaaOIH9GKqoacNyTL-141" value="Item 1" style="text;strokeColor=none;fillColor=none;align=left;verticalAlign=middle;spacingLeft=4;spacingRight=4;overflow=hidden;points=[[0,0.5],[1,0.5]];portConstraint=eastwest;rotatable=0;whiteSpace=wrap;html=1;labelBackgroundColor=none;fontColor=#143642;rounded=1;" parent="gJwUaaOIH9GKqoacNyTL-140" vertex="1">
          <mxGeometry y="30" width="140" height="30" as="geometry" />
        </mxCell>
        <mxCell id="gJwUaaOIH9GKqoacNyTL-142" value="Item 2" style="text;strokeColor=none;fillColor=none;align=left;verticalAlign=middle;spacingLeft=4;spacingRight=4;overflow=hidden;points=[[0,0.5],[1,0.5]];portConstraint=eastwest;rotatable=0;whiteSpace=wrap;html=1;labelBackgroundColor=none;fontColor=#143642;rounded=1;" parent="gJwUaaOIH9GKqoacNyTL-140" vertex="1">
          <mxGeometry y="60" width="140" height="30" as="geometry" />
        </mxCell>
        <mxCell id="gJwUaaOIH9GKqoacNyTL-143" value="Item 3" style="text;strokeColor=none;fillColor=none;align=left;verticalAlign=middle;spacingLeft=4;spacingRight=4;overflow=hidden;points=[[0,0.5],[1,0.5]];portConstraint=eastwest;rotatable=0;whiteSpace=wrap;html=1;labelBackgroundColor=none;fontColor=#143642;rounded=1;" parent="gJwUaaOIH9GKqoacNyTL-140" vertex="1">
          <mxGeometry y="90" width="140" height="30" as="geometry" />
        </mxCell>
        <mxCell id="gJwUaaOIH9GKqoacNyTL-144" value="收集需求" style="swimlane;fontStyle=0;childLayout=stackLayout;horizontal=1;startSize=30;horizontalStack=0;resizeParent=1;resizeParentMax=0;resizeLast=0;collapsible=1;marginBottom=0;whiteSpace=wrap;html=1;fillColor=#FAE5C7;strokeColor=#0F8B8D;fontColor=#143642;swimlaneFillColor=none;labelBackgroundColor=none;rounded=1;" parent="gJwUaaOIH9GKqoacNyTL-139" vertex="1">
          <mxGeometry x="50" y="190" width="140" height="120" as="geometry">
            <mxRectangle x="-60" y="80" width="140" height="30" as="alternateBounds" />
          </mxGeometry>
        </mxCell>
        <mxCell id="gJwUaaOIH9GKqoacNyTL-145" value="Item 1" style="text;strokeColor=none;fillColor=none;align=left;verticalAlign=middle;spacingLeft=4;spacingRight=4;overflow=hidden;points=[[0,0.5],[1,0.5]];portConstraint=eastwest;rotatable=0;whiteSpace=wrap;html=1;labelBackgroundColor=none;fontColor=#143642;rounded=1;" parent="gJwUaaOIH9GKqoacNyTL-144" vertex="1">
          <mxGeometry y="30" width="140" height="30" as="geometry" />
        </mxCell>
        <mxCell id="gJwUaaOIH9GKqoacNyTL-146" value="Item 2" style="text;strokeColor=none;fillColor=none;align=left;verticalAlign=middle;spacingLeft=4;spacingRight=4;overflow=hidden;points=[[0,0.5],[1,0.5]];portConstraint=eastwest;rotatable=0;whiteSpace=wrap;html=1;labelBackgroundColor=none;fontColor=#143642;rounded=1;" parent="gJwUaaOIH9GKqoacNyTL-144" vertex="1">
          <mxGeometry y="60" width="140" height="30" as="geometry" />
        </mxCell>
        <mxCell id="gJwUaaOIH9GKqoacNyTL-147" value="Item 3" style="text;strokeColor=none;fillColor=none;align=left;verticalAlign=middle;spacingLeft=4;spacingRight=4;overflow=hidden;points=[[0,0.5],[1,0.5]];portConstraint=eastwest;rotatable=0;whiteSpace=wrap;html=1;labelBackgroundColor=none;fontColor=#143642;rounded=1;" parent="gJwUaaOIH9GKqoacNyTL-144" vertex="1">
          <mxGeometry y="90" width="140" height="30" as="geometry" />
        </mxCell>
        <mxCell id="gJwUaaOIH9GKqoacNyTL-148" value="定义范围" style="swimlane;fontStyle=0;childLayout=stackLayout;horizontal=1;startSize=30;horizontalStack=0;resizeParent=1;resizeParentMax=0;resizeLast=0;collapsible=1;marginBottom=0;whiteSpace=wrap;html=1;fillColor=#FAE5C7;strokeColor=#0F8B8D;fontColor=#143642;swimlaneFillColor=none;labelBackgroundColor=none;rounded=1;" parent="gJwUaaOIH9GKqoacNyTL-139" vertex="1">
          <mxGeometry x="50" y="310" width="140" height="120" as="geometry">
            <mxRectangle x="-60" y="20" width="150" height="30" as="alternateBounds" />
          </mxGeometry>
        </mxCell>
        <mxCell id="gJwUaaOIH9GKqoacNyTL-149" value="Item 1" style="text;strokeColor=none;fillColor=none;align=left;verticalAlign=middle;spacingLeft=4;spacingRight=4;overflow=hidden;points=[[0,0.5],[1,0.5]];portConstraint=eastwest;rotatable=0;whiteSpace=wrap;html=1;labelBackgroundColor=none;fontColor=#143642;rounded=1;" parent="gJwUaaOIH9GKqoacNyTL-148" vertex="1">
          <mxGeometry y="30" width="140" height="30" as="geometry" />
        </mxCell>
        <mxCell id="gJwUaaOIH9GKqoacNyTL-150" value="Item 2" style="text;strokeColor=none;fillColor=none;align=left;verticalAlign=middle;spacingLeft=4;spacingRight=4;overflow=hidden;points=[[0,0.5],[1,0.5]];portConstraint=eastwest;rotatable=0;whiteSpace=wrap;html=1;labelBackgroundColor=none;fontColor=#143642;rounded=1;" parent="gJwUaaOIH9GKqoacNyTL-148" vertex="1">
          <mxGeometry y="60" width="140" height="30" as="geometry" />
        </mxCell>
        <mxCell id="gJwUaaOIH9GKqoacNyTL-151" value="Item 3" style="text;strokeColor=none;fillColor=none;align=left;verticalAlign=middle;spacingLeft=4;spacingRight=4;overflow=hidden;points=[[0,0.5],[1,0.5]];portConstraint=eastwest;rotatable=0;whiteSpace=wrap;html=1;labelBackgroundColor=none;fontColor=#143642;rounded=1;" parent="gJwUaaOIH9GKqoacNyTL-148" vertex="1">
          <mxGeometry y="90" width="140" height="30" as="geometry" />
        </mxCell>
        <mxCell id="gJwUaaOIH9GKqoacNyTL-152" value="创建WBS" style="swimlane;fontStyle=0;childLayout=stackLayout;horizontal=1;startSize=30;horizontalStack=0;resizeParent=1;resizeParentMax=0;resizeLast=0;collapsible=1;marginBottom=0;whiteSpace=wrap;html=1;fillColor=#FAE5C7;strokeColor=#0F8B8D;fontColor=#143642;labelBackgroundColor=none;rounded=1;" parent="gJwUaaOIH9GKqoacNyTL-139" vertex="1">
          <mxGeometry x="50" y="430" width="140" height="120" as="geometry">
            <mxRectangle x="-60" y="320" width="110" height="30" as="alternateBounds" />
          </mxGeometry>
        </mxCell>
        <mxCell id="gJwUaaOIH9GKqoacNyTL-153" value="Item 1" style="text;strokeColor=none;fillColor=none;align=left;verticalAlign=middle;spacingLeft=4;spacingRight=4;overflow=hidden;points=[[0,0.5],[1,0.5]];portConstraint=eastwest;rotatable=0;whiteSpace=wrap;html=1;labelBackgroundColor=none;fontColor=#143642;rounded=1;" parent="gJwUaaOIH9GKqoacNyTL-152" vertex="1">
          <mxGeometry y="30" width="140" height="30" as="geometry" />
        </mxCell>
        <mxCell id="gJwUaaOIH9GKqoacNyTL-154" value="Item 2" style="text;strokeColor=none;fillColor=none;align=left;verticalAlign=middle;spacingLeft=4;spacingRight=4;overflow=hidden;points=[[0,0.5],[1,0.5]];portConstraint=eastwest;rotatable=0;whiteSpace=wrap;html=1;labelBackgroundColor=none;fontColor=#143642;rounded=1;" parent="gJwUaaOIH9GKqoacNyTL-152" vertex="1">
          <mxGeometry y="60" width="140" height="30" as="geometry" />
        </mxCell>
        <mxCell id="gJwUaaOIH9GKqoacNyTL-155" value="Item 3" style="text;strokeColor=none;fillColor=none;align=left;verticalAlign=middle;spacingLeft=4;spacingRight=4;overflow=hidden;points=[[0,0.5],[1,0.5]];portConstraint=eastwest;rotatable=0;whiteSpace=wrap;html=1;labelBackgroundColor=none;fontColor=#143642;rounded=1;" parent="gJwUaaOIH9GKqoacNyTL-152" vertex="1">
          <mxGeometry y="90" width="140" height="30" as="geometry" />
        </mxCell>
        <mxCell id="gJwUaaOIH9GKqoacNyTL-156" value="确定范围" style="swimlane;fontStyle=0;childLayout=stackLayout;horizontal=1;startSize=30;horizontalStack=0;resizeParent=1;resizeParentMax=0;resizeLast=0;collapsible=1;marginBottom=0;whiteSpace=wrap;html=1;fillColor=#FAE5C7;strokeColor=#0F8B8D;fontColor=#143642;labelBackgroundColor=none;rounded=1;" parent="gJwUaaOIH9GKqoacNyTL-139" vertex="1">
          <mxGeometry x="50" y="550" width="140" height="120" as="geometry">
            <mxRectangle x="-60" y="440" width="110" height="30" as="alternateBounds" />
          </mxGeometry>
        </mxCell>
        <mxCell id="gJwUaaOIH9GKqoacNyTL-157" value="Item 1" style="text;strokeColor=none;fillColor=none;align=left;verticalAlign=middle;spacingLeft=4;spacingRight=4;overflow=hidden;points=[[0,0.5],[1,0.5]];portConstraint=eastwest;rotatable=0;whiteSpace=wrap;html=1;labelBackgroundColor=none;fontColor=#143642;rounded=1;" parent="gJwUaaOIH9GKqoacNyTL-156" vertex="1">
          <mxGeometry y="30" width="140" height="30" as="geometry" />
        </mxCell>
        <mxCell id="gJwUaaOIH9GKqoacNyTL-158" value="Item 2" style="text;strokeColor=none;fillColor=none;align=left;verticalAlign=middle;spacingLeft=4;spacingRight=4;overflow=hidden;points=[[0,0.5],[1,0.5]];portConstraint=eastwest;rotatable=0;whiteSpace=wrap;html=1;labelBackgroundColor=none;fontColor=#143642;rounded=1;" parent="gJwUaaOIH9GKqoacNyTL-156" vertex="1">
          <mxGeometry y="60" width="140" height="30" as="geometry" />
        </mxCell>
        <mxCell id="gJwUaaOIH9GKqoacNyTL-159" value="Item 3" style="text;strokeColor=none;fillColor=none;align=left;verticalAlign=middle;spacingLeft=4;spacingRight=4;overflow=hidden;points=[[0,0.5],[1,0.5]];portConstraint=eastwest;rotatable=0;whiteSpace=wrap;html=1;labelBackgroundColor=none;fontColor=#143642;rounded=1;" parent="gJwUaaOIH9GKqoacNyTL-156" vertex="1">
          <mxGeometry y="90" width="140" height="30" as="geometry" />
        </mxCell>
        <mxCell id="gJwUaaOIH9GKqoacNyTL-160" value="控制范围" style="swimlane;fontStyle=0;childLayout=stackLayout;horizontal=1;startSize=30;horizontalStack=0;resizeParent=1;resizeParentMax=0;resizeLast=0;collapsible=1;marginBottom=0;whiteSpace=wrap;html=1;fillColor=#FAE5C7;strokeColor=#0F8B8D;fontColor=#143642;labelBackgroundColor=none;rounded=1;" parent="gJwUaaOIH9GKqoacNyTL-139" vertex="1">
          <mxGeometry x="50" y="670" width="140" height="120" as="geometry">
            <mxRectangle x="-60" y="560" width="140" height="30" as="alternateBounds" />
          </mxGeometry>
        </mxCell>
        <mxCell id="gJwUaaOIH9GKqoacNyTL-161" value="Item 1" style="text;strokeColor=none;fillColor=none;align=left;verticalAlign=middle;spacingLeft=4;spacingRight=4;overflow=hidden;points=[[0,0.5],[1,0.5]];portConstraint=eastwest;rotatable=0;whiteSpace=wrap;html=1;labelBackgroundColor=none;fontColor=#143642;rounded=1;" parent="gJwUaaOIH9GKqoacNyTL-160" vertex="1">
          <mxGeometry y="30" width="140" height="30" as="geometry" />
        </mxCell>
        <mxCell id="gJwUaaOIH9GKqoacNyTL-162" value="Item 2" style="text;strokeColor=none;fillColor=none;align=left;verticalAlign=middle;spacingLeft=4;spacingRight=4;overflow=hidden;points=[[0,0.5],[1,0.5]];portConstraint=eastwest;rotatable=0;whiteSpace=wrap;html=1;labelBackgroundColor=none;fontColor=#143642;rounded=1;" parent="gJwUaaOIH9GKqoacNyTL-160" vertex="1">
          <mxGeometry y="60" width="140" height="30" as="geometry" />
        </mxCell>
        <mxCell id="gJwUaaOIH9GKqoacNyTL-163" value="Item 3" style="text;strokeColor=none;fillColor=none;align=left;verticalAlign=middle;spacingLeft=4;spacingRight=4;overflow=hidden;points=[[0,0.5],[1,0.5]];portConstraint=eastwest;rotatable=0;whiteSpace=wrap;html=1;labelBackgroundColor=none;fontColor=#143642;rounded=1;" parent="gJwUaaOIH9GKqoacNyTL-160" vertex="1">
          <mxGeometry y="90" width="140" height="30" as="geometry" />
        </mxCell>
        <mxCell id="BPJNlQdWapzmma86S74a-172" value="制定项目章程" style="swimlane;childLayout=stackLayout;resizeParent=1;resizeParentMax=0;startSize=20;html=1;labelBackgroundColor=none;fillColor=#FAE5C7;strokeColor=#0F8B8D;fontColor=#143642;rounded=1;" parent="1" vertex="1">
          <mxGeometry x="-1160" y="-790" width="360" height="270" as="geometry" />
        </mxCell>
        <mxCell id="BPJNlQdWapzmma86S74a-173" value="输入" style="swimlane;startSize=20;html=1;labelBackgroundColor=none;fillColor=#FAE5C7;strokeColor=#0F8B8D;fontColor=#143642;rounded=1;" parent="BPJNlQdWapzmma86S74a-172" vertex="1">
          <mxGeometry y="20" width="120" height="250" as="geometry" />
        </mxCell>
        <mxCell id="BPJNlQdWapzmma86S74a-158" value="立项管理文件" style="whiteSpace=wrap;html=1;fillColor=#FAE5C7;strokeColor=#0F8B8D;labelBackgroundColor=none;fontColor=#143642;rounded=1;" parent="BPJNlQdWapzmma86S74a-173" vertex="1">
          <mxGeometry x="12.499999999999545" y="40" width="95" height="40" as="geometry" />
        </mxCell>
        <mxCell id="p5pr4pcypY8BXFdTyHFl-1" value="协议" style="whiteSpace=wrap;html=1;fillColor=#FAE5C7;strokeColor=#0F8B8D;labelBackgroundColor=none;fontColor=#143642;rounded=1;" vertex="1" parent="BPJNlQdWapzmma86S74a-173">
          <mxGeometry x="12.499999999999545" y="90" width="95" height="40" as="geometry" />
        </mxCell>
        <mxCell id="p5pr4pcypY8BXFdTyHFl-2" value="事业环境因素" style="whiteSpace=wrap;html=1;fillColor=#FAE5C7;strokeColor=#0F8B8D;labelBackgroundColor=none;fontColor=#143642;rounded=1;" vertex="1" parent="BPJNlQdWapzmma86S74a-173">
          <mxGeometry x="12.499999999999545" y="140" width="95" height="40" as="geometry" />
        </mxCell>
        <mxCell id="p5pr4pcypY8BXFdTyHFl-3" value="组织过程资产" style="whiteSpace=wrap;html=1;fillColor=#FAE5C7;strokeColor=#0F8B8D;labelBackgroundColor=none;fontColor=#143642;rounded=1;" vertex="1" parent="BPJNlQdWapzmma86S74a-173">
          <mxGeometry x="12.499999999999545" y="190" width="95" height="40" as="geometry" />
        </mxCell>
        <mxCell id="BPJNlQdWapzmma86S74a-174" value="工具" style="swimlane;startSize=20;html=1;labelBackgroundColor=none;fillColor=#FAE5C7;strokeColor=#0F8B8D;fontColor=#143642;rounded=1;" parent="BPJNlQdWapzmma86S74a-172" vertex="1">
          <mxGeometry x="120" y="20" width="120" height="250" as="geometry" />
        </mxCell>
        <mxCell id="BPJNlQdWapzmma86S74a-165" value="专家判断" style="whiteSpace=wrap;html=1;labelBackgroundColor=none;fillColor=#FAE5C7;strokeColor=#0F8B8D;fontColor=#143642;rounded=1;" parent="BPJNlQdWapzmma86S74a-174" vertex="1">
          <mxGeometry x="12.499999999999545" y="40" width="95" height="40" as="geometry" />
        </mxCell>
        <mxCell id="BPJNlQdWapzmma86S74a-166" value="数据收集" style="whiteSpace=wrap;html=1;labelBackgroundColor=none;fillColor=#FAE5C7;strokeColor=#0F8B8D;fontColor=#143642;rounded=1;" parent="BPJNlQdWapzmma86S74a-174" vertex="1">
          <mxGeometry x="12.499999999999545" y="90" width="95" height="40" as="geometry" />
        </mxCell>
        <mxCell id="BPJNlQdWapzmma86S74a-167" value="人际关系和团队技能" style="whiteSpace=wrap;html=1;labelBackgroundColor=none;fillColor=#FAE5C7;strokeColor=#0F8B8D;fontColor=#143642;rounded=1;" parent="BPJNlQdWapzmma86S74a-174" vertex="1">
          <mxGeometry x="12.499999999999545" y="140" width="95" height="40" as="geometry" />
        </mxCell>
        <mxCell id="BPJNlQdWapzmma86S74a-168" value="会议" style="whiteSpace=wrap;html=1;labelBackgroundColor=none;fillColor=#FAE5C7;strokeColor=#0F8B8D;fontColor=#143642;rounded=1;" parent="BPJNlQdWapzmma86S74a-174" vertex="1">
          <mxGeometry x="12.499999999999545" y="190" width="95" height="40" as="geometry" />
        </mxCell>
        <mxCell id="BPJNlQdWapzmma86S74a-175" value="输出" style="swimlane;startSize=20;html=1;labelBackgroundColor=none;fillColor=#FAE5C7;strokeColor=#0F8B8D;fontColor=#143642;rounded=1;" parent="BPJNlQdWapzmma86S74a-172" vertex="1">
          <mxGeometry x="240" y="20" width="120" height="250" as="geometry" />
        </mxCell>
        <mxCell id="p5pr4pcypY8BXFdTyHFl-6" value="项目章程" style="whiteSpace=wrap;html=1;fillColor=#FAE5C7;strokeColor=#0F8B8D;labelBackgroundColor=none;fontColor=#143642;rounded=1;" vertex="1" parent="BPJNlQdWapzmma86S74a-175">
          <mxGeometry x="12.499999999999545" y="40" width="95" height="40" as="geometry" />
        </mxCell>
        <mxCell id="p5pr4pcypY8BXFdTyHFl-9" value="假设日志" style="whiteSpace=wrap;html=1;fillColor=#FAE5C7;strokeColor=#0F8B8D;labelBackgroundColor=none;fontColor=#143642;rounded=1;" vertex="1" parent="BPJNlQdWapzmma86S74a-175">
          <mxGeometry x="12.499999999999545" y="90" width="95" height="40" as="geometry" />
        </mxCell>
        <mxCell id="p5pr4pcypY8BXFdTyHFl-125" style="edgeStyle=orthogonalEdgeStyle;curved=1;rounded=1;orthogonalLoop=1;jettySize=auto;html=1;entryX=0;entryY=0.5;entryDx=0;entryDy=0;fillColor=#dae8fc;strokeColor=#6c8ebf;strokeWidth=2;labelBackgroundColor=none;fontColor=default;" edge="1" parent="1" source="p5pr4pcypY8BXFdTyHFl-102" target="p5pr4pcypY8BXFdTyHFl-111">
          <mxGeometry relative="1" as="geometry" />
        </mxCell>
        <mxCell id="p5pr4pcypY8BXFdTyHFl-10" value="制定项目管理计划" style="swimlane;childLayout=stackLayout;resizeParent=1;resizeParentMax=0;startSize=20;html=1;labelBackgroundColor=none;fillColor=#FAE5C7;strokeColor=#0F8B8D;fontColor=#143642;rounded=1;" vertex="1" parent="1">
          <mxGeometry x="-739" y="-790" width="360" height="270" as="geometry">
            <mxRectangle x="1061" y="-350" width="140" height="30" as="alternateBounds" />
          </mxGeometry>
        </mxCell>
        <mxCell id="p5pr4pcypY8BXFdTyHFl-11" value="输入" style="swimlane;startSize=20;html=1;labelBackgroundColor=none;fillColor=#FAE5C7;strokeColor=#0F8B8D;fontColor=#143642;rounded=1;" vertex="1" parent="p5pr4pcypY8BXFdTyHFl-10">
          <mxGeometry y="20" width="120" height="250" as="geometry" />
        </mxCell>
        <mxCell id="p5pr4pcypY8BXFdTyHFl-12" value="项目章程" style="whiteSpace=wrap;html=1;fillColor=#FAE5C7;strokeColor=#0F8B8D;labelBackgroundColor=none;fontColor=#143642;rounded=1;" vertex="1" parent="p5pr4pcypY8BXFdTyHFl-11">
          <mxGeometry x="12.499999999999545" y="40" width="95" height="40" as="geometry" />
        </mxCell>
        <mxCell id="p5pr4pcypY8BXFdTyHFl-13" value="其他知识领域规划过程中的输出" style="whiteSpace=wrap;html=1;fillColor=#FAE5C7;strokeColor=#0F8B8D;labelBackgroundColor=none;fontColor=#143642;rounded=1;" vertex="1" parent="p5pr4pcypY8BXFdTyHFl-11">
          <mxGeometry x="12.499999999999545" y="90" width="95" height="40" as="geometry" />
        </mxCell>
        <mxCell id="p5pr4pcypY8BXFdTyHFl-14" value="事业环境因素" style="whiteSpace=wrap;html=1;fillColor=#FAE5C7;strokeColor=#0F8B8D;labelBackgroundColor=none;fontColor=#143642;rounded=1;" vertex="1" parent="p5pr4pcypY8BXFdTyHFl-11">
          <mxGeometry x="12.499999999999545" y="140" width="95" height="40" as="geometry" />
        </mxCell>
        <mxCell id="p5pr4pcypY8BXFdTyHFl-15" value="组织过程资产" style="whiteSpace=wrap;html=1;fillColor=#FAE5C7;strokeColor=#0F8B8D;labelBackgroundColor=none;fontColor=#143642;rounded=1;" vertex="1" parent="p5pr4pcypY8BXFdTyHFl-11">
          <mxGeometry x="12.499999999999545" y="190" width="95" height="40" as="geometry" />
        </mxCell>
        <mxCell id="p5pr4pcypY8BXFdTyHFl-16" value="工具" style="swimlane;startSize=20;html=1;labelBackgroundColor=none;fillColor=#FAE5C7;strokeColor=#0F8B8D;fontColor=#143642;rounded=1;" vertex="1" parent="p5pr4pcypY8BXFdTyHFl-10">
          <mxGeometry x="120" y="20" width="120" height="250" as="geometry" />
        </mxCell>
        <mxCell id="p5pr4pcypY8BXFdTyHFl-17" value="专家判断" style="whiteSpace=wrap;html=1;labelBackgroundColor=none;fillColor=#FAE5C7;strokeColor=#0F8B8D;fontColor=#143642;rounded=1;" vertex="1" parent="p5pr4pcypY8BXFdTyHFl-16">
          <mxGeometry x="12.499999999999545" y="40" width="95" height="40" as="geometry" />
        </mxCell>
        <mxCell id="p5pr4pcypY8BXFdTyHFl-18" value="数据收集" style="whiteSpace=wrap;html=1;labelBackgroundColor=none;fillColor=#FAE5C7;strokeColor=#0F8B8D;fontColor=#143642;rounded=1;" vertex="1" parent="p5pr4pcypY8BXFdTyHFl-16">
          <mxGeometry x="12.499999999999545" y="90" width="95" height="40" as="geometry" />
        </mxCell>
        <mxCell id="p5pr4pcypY8BXFdTyHFl-19" value="人际关系和团队技能" style="whiteSpace=wrap;html=1;labelBackgroundColor=none;fillColor=#FAE5C7;strokeColor=#0F8B8D;fontColor=#143642;rounded=1;" vertex="1" parent="p5pr4pcypY8BXFdTyHFl-16">
          <mxGeometry x="12.499999999999545" y="140" width="95" height="40" as="geometry" />
        </mxCell>
        <mxCell id="p5pr4pcypY8BXFdTyHFl-20" value="会议" style="whiteSpace=wrap;html=1;labelBackgroundColor=none;fillColor=#FAE5C7;strokeColor=#0F8B8D;fontColor=#143642;rounded=1;" vertex="1" parent="p5pr4pcypY8BXFdTyHFl-16">
          <mxGeometry x="12.499999999999545" y="190" width="95" height="40" as="geometry" />
        </mxCell>
        <mxCell id="p5pr4pcypY8BXFdTyHFl-21" value="输出" style="swimlane;startSize=20;html=1;labelBackgroundColor=none;fillColor=#FAE5C7;strokeColor=#0F8B8D;fontColor=#143642;rounded=1;" vertex="1" parent="p5pr4pcypY8BXFdTyHFl-10">
          <mxGeometry x="240" y="20" width="120" height="250" as="geometry" />
        </mxCell>
        <mxCell id="p5pr4pcypY8BXFdTyHFl-22" value="项目管理计划" style="whiteSpace=wrap;html=1;fillColor=#FAE5C7;strokeColor=#0F8B8D;labelBackgroundColor=none;fontColor=#143642;rounded=1;" vertex="1" parent="p5pr4pcypY8BXFdTyHFl-21">
          <mxGeometry x="12.499999999999545" y="40" width="95" height="40" as="geometry" />
        </mxCell>
        <mxCell id="p5pr4pcypY8BXFdTyHFl-25" style="edgeStyle=orthogonalEdgeStyle;rounded=1;orthogonalLoop=1;jettySize=auto;html=1;entryX=0;entryY=0.5;entryDx=0;entryDy=0;labelBackgroundColor=none;strokeColor=#A8201A;fontColor=default;" edge="1" parent="1" source="p5pr4pcypY8BXFdTyHFl-6" target="p5pr4pcypY8BXFdTyHFl-12">
          <mxGeometry relative="1" as="geometry" />
        </mxCell>
        <mxCell id="p5pr4pcypY8BXFdTyHFl-26" value="指导与管理项目工作" style="swimlane;childLayout=stackLayout;resizeParent=1;resizeParentMax=0;startSize=20;html=1;labelBackgroundColor=none;fillColor=#FAE5C7;strokeColor=#0F8B8D;fontColor=#143642;rounded=1;" vertex="1" parent="1">
          <mxGeometry x="-340" y="-790" width="360" height="420" as="geometry">
            <mxRectangle x="1061" y="-350" width="140" height="30" as="alternateBounds" />
          </mxGeometry>
        </mxCell>
        <mxCell id="p5pr4pcypY8BXFdTyHFl-27" value="输入" style="swimlane;startSize=20;html=1;labelBackgroundColor=none;fillColor=#FAE5C7;strokeColor=#0F8B8D;fontColor=#143642;rounded=1;" vertex="1" parent="p5pr4pcypY8BXFdTyHFl-26">
          <mxGeometry y="20" width="120" height="400" as="geometry" />
        </mxCell>
        <mxCell id="p5pr4pcypY8BXFdTyHFl-28" value="项目管理计划" style="whiteSpace=wrap;html=1;fillColor=#FAE5C7;strokeColor=#0F8B8D;labelBackgroundColor=none;fontColor=#143642;rounded=1;" vertex="1" parent="p5pr4pcypY8BXFdTyHFl-27">
          <mxGeometry x="12.499999999999545" y="40" width="95" height="40" as="geometry" />
        </mxCell>
        <mxCell id="p5pr4pcypY8BXFdTyHFl-29" value="项目文件" style="whiteSpace=wrap;html=1;fillColor=#FAE5C7;strokeColor=#0F8B8D;labelBackgroundColor=none;fontColor=#143642;rounded=1;" vertex="1" parent="p5pr4pcypY8BXFdTyHFl-27">
          <mxGeometry x="12.499999999999545" y="90" width="95" height="40" as="geometry" />
        </mxCell>
        <mxCell id="p5pr4pcypY8BXFdTyHFl-30" value="批准的变更请求" style="whiteSpace=wrap;html=1;fillColor=#FAE5C7;strokeColor=#0F8B8D;labelBackgroundColor=none;fontColor=#143642;rounded=1;" vertex="1" parent="p5pr4pcypY8BXFdTyHFl-27">
          <mxGeometry x="12.499999999999545" y="140" width="95" height="40" as="geometry" />
        </mxCell>
        <mxCell id="p5pr4pcypY8BXFdTyHFl-31" value="事业环境因素" style="whiteSpace=wrap;html=1;fillColor=#FAE5C7;strokeColor=#0F8B8D;labelBackgroundColor=none;fontColor=#143642;rounded=1;" vertex="1" parent="p5pr4pcypY8BXFdTyHFl-27">
          <mxGeometry x="12.499999999999545" y="190" width="95" height="40" as="geometry" />
        </mxCell>
        <mxCell id="p5pr4pcypY8BXFdTyHFl-44" value="组织过程资产" style="whiteSpace=wrap;html=1;fillColor=#FAE5C7;strokeColor=#0F8B8D;labelBackgroundColor=none;fontColor=#143642;rounded=1;" vertex="1" parent="p5pr4pcypY8BXFdTyHFl-27">
          <mxGeometry x="12.499999999999545" y="240" width="95" height="40" as="geometry" />
        </mxCell>
        <mxCell id="p5pr4pcypY8BXFdTyHFl-32" value="工具" style="swimlane;startSize=20;html=1;labelBackgroundColor=none;fillColor=#FAE5C7;strokeColor=#0F8B8D;fontColor=#143642;rounded=1;" vertex="1" parent="p5pr4pcypY8BXFdTyHFl-26">
          <mxGeometry x="120" y="20" width="120" height="400" as="geometry" />
        </mxCell>
        <mxCell id="p5pr4pcypY8BXFdTyHFl-33" value="专家判断" style="whiteSpace=wrap;html=1;labelBackgroundColor=none;fillColor=#FAE5C7;strokeColor=#0F8B8D;fontColor=#143642;rounded=1;" vertex="1" parent="p5pr4pcypY8BXFdTyHFl-32">
          <mxGeometry x="12.499999999999545" y="40" width="95" height="40" as="geometry" />
        </mxCell>
        <mxCell id="p5pr4pcypY8BXFdTyHFl-34" value="项目管理信息系统" style="whiteSpace=wrap;html=1;labelBackgroundColor=none;fillColor=#FAE5C7;strokeColor=#0F8B8D;fontColor=#143642;rounded=1;" vertex="1" parent="p5pr4pcypY8BXFdTyHFl-32">
          <mxGeometry x="12.499999999999545" y="90" width="95" height="40" as="geometry" />
        </mxCell>
        <mxCell id="p5pr4pcypY8BXFdTyHFl-36" value="会议" style="whiteSpace=wrap;html=1;labelBackgroundColor=none;fillColor=#FAE5C7;strokeColor=#0F8B8D;fontColor=#143642;rounded=1;" vertex="1" parent="p5pr4pcypY8BXFdTyHFl-32">
          <mxGeometry x="12.499999999999545" y="140" width="95" height="40" as="geometry" />
        </mxCell>
        <mxCell id="p5pr4pcypY8BXFdTyHFl-37" value="输出" style="swimlane;startSize=20;html=1;labelBackgroundColor=none;fillColor=#FAE5C7;strokeColor=#0F8B8D;fontColor=#143642;rounded=1;" vertex="1" parent="p5pr4pcypY8BXFdTyHFl-26">
          <mxGeometry x="240" y="20" width="120" height="400" as="geometry" />
        </mxCell>
        <mxCell id="p5pr4pcypY8BXFdTyHFl-38" value="可交付成果" style="whiteSpace=wrap;html=1;fillColor=#FAE5C7;strokeColor=#0F8B8D;labelBackgroundColor=none;fontColor=#143642;rounded=1;" vertex="1" parent="p5pr4pcypY8BXFdTyHFl-37">
          <mxGeometry x="12.499999999999545" y="40" width="95" height="40" as="geometry" />
        </mxCell>
        <mxCell id="p5pr4pcypY8BXFdTyHFl-45" value="工作绩效数据" style="whiteSpace=wrap;html=1;fillColor=#FAE5C7;strokeColor=#0F8B8D;labelBackgroundColor=none;fontColor=#143642;rounded=1;" vertex="1" parent="p5pr4pcypY8BXFdTyHFl-37">
          <mxGeometry x="12.499999999999545" y="90" width="95" height="40" as="geometry" />
        </mxCell>
        <mxCell id="p5pr4pcypY8BXFdTyHFl-46" value="问题日志" style="whiteSpace=wrap;html=1;fillColor=#FAE5C7;strokeColor=#0F8B8D;labelBackgroundColor=none;fontColor=#143642;rounded=1;" vertex="1" parent="p5pr4pcypY8BXFdTyHFl-37">
          <mxGeometry x="12.499999999999545" y="140" width="95" height="40" as="geometry" />
        </mxCell>
        <mxCell id="p5pr4pcypY8BXFdTyHFl-47" value="变更请求" style="whiteSpace=wrap;html=1;fillColor=#FAE5C7;strokeColor=#0F8B8D;labelBackgroundColor=none;fontColor=#143642;rounded=1;" vertex="1" parent="p5pr4pcypY8BXFdTyHFl-37">
          <mxGeometry x="12.499999999999545" y="190" width="95" height="40" as="geometry" />
        </mxCell>
        <mxCell id="p5pr4pcypY8BXFdTyHFl-48" value="项目管理计划（更新）" style="whiteSpace=wrap;html=1;fillColor=#FAE5C7;strokeColor=#0F8B8D;labelBackgroundColor=none;fontColor=#143642;rounded=1;" vertex="1" parent="p5pr4pcypY8BXFdTyHFl-37">
          <mxGeometry x="12.499999999999545" y="240" width="95" height="40" as="geometry" />
        </mxCell>
        <mxCell id="p5pr4pcypY8BXFdTyHFl-49" value="项目文件（更新）" style="whiteSpace=wrap;html=1;fillColor=#FAE5C7;strokeColor=#0F8B8D;labelBackgroundColor=none;fontColor=#143642;rounded=1;" vertex="1" parent="p5pr4pcypY8BXFdTyHFl-37">
          <mxGeometry x="12.499999999999545" y="290" width="95" height="40" as="geometry" />
        </mxCell>
        <mxCell id="p5pr4pcypY8BXFdTyHFl-59" value="组织过程资产（更新）" style="whiteSpace=wrap;html=1;fillColor=#FAE5C7;strokeColor=#0F8B8D;labelBackgroundColor=none;fontColor=#143642;rounded=1;" vertex="1" parent="p5pr4pcypY8BXFdTyHFl-37">
          <mxGeometry x="12.499999999999545" y="340" width="95" height="40" as="geometry" />
        </mxCell>
        <mxCell id="p5pr4pcypY8BXFdTyHFl-61" style="edgeStyle=orthogonalEdgeStyle;rounded=1;orthogonalLoop=1;jettySize=auto;html=1;entryX=0;entryY=0.5;entryDx=0;entryDy=0;fillColor=#FAE5C7;strokeColor=#A8201A;labelBackgroundColor=none;fontColor=default;" edge="1" parent="1" source="p5pr4pcypY8BXFdTyHFl-22" target="p5pr4pcypY8BXFdTyHFl-28">
          <mxGeometry relative="1" as="geometry" />
        </mxCell>
        <mxCell id="p5pr4pcypY8BXFdTyHFl-62" value="管理项目知识" style="swimlane;childLayout=stackLayout;resizeParent=1;resizeParentMax=0;startSize=20;html=1;labelBackgroundColor=none;fillColor=#FAE5C7;strokeColor=#0F8B8D;fontColor=#143642;rounded=1;" vertex="1" parent="1">
          <mxGeometry x="-340" y="-330" width="360" height="320" as="geometry">
            <mxRectangle x="1061" y="-350" width="140" height="30" as="alternateBounds" />
          </mxGeometry>
        </mxCell>
        <mxCell id="p5pr4pcypY8BXFdTyHFl-63" value="输入" style="swimlane;startSize=20;html=1;labelBackgroundColor=none;fillColor=#FAE5C7;strokeColor=#0F8B8D;fontColor=#143642;rounded=1;" vertex="1" parent="p5pr4pcypY8BXFdTyHFl-62">
          <mxGeometry y="20" width="120" height="300" as="geometry" />
        </mxCell>
        <mxCell id="p5pr4pcypY8BXFdTyHFl-64" value="项目管理计划" style="whiteSpace=wrap;html=1;fillColor=#FAE5C7;strokeColor=#0F8B8D;labelBackgroundColor=none;fontColor=#143642;rounded=1;" vertex="1" parent="p5pr4pcypY8BXFdTyHFl-63">
          <mxGeometry x="12.499999999999545" y="40" width="95" height="40" as="geometry" />
        </mxCell>
        <mxCell id="p5pr4pcypY8BXFdTyHFl-65" value="项目文件" style="whiteSpace=wrap;html=1;fillColor=#FAE5C7;strokeColor=#0F8B8D;labelBackgroundColor=none;fontColor=#143642;rounded=1;" vertex="1" parent="p5pr4pcypY8BXFdTyHFl-63">
          <mxGeometry x="12.499999999999545" y="90" width="95" height="40" as="geometry" />
        </mxCell>
        <mxCell id="p5pr4pcypY8BXFdTyHFl-66" value="可交付成果" style="whiteSpace=wrap;html=1;fillColor=#FAE5C7;strokeColor=#0F8B8D;labelBackgroundColor=none;fontColor=#143642;rounded=1;" vertex="1" parent="p5pr4pcypY8BXFdTyHFl-63">
          <mxGeometry x="12.499999999999545" y="140" width="95" height="40" as="geometry" />
        </mxCell>
        <mxCell id="p5pr4pcypY8BXFdTyHFl-67" value="事业环境因素" style="whiteSpace=wrap;html=1;fillColor=#FAE5C7;strokeColor=#0F8B8D;labelBackgroundColor=none;fontColor=#143642;rounded=1;" vertex="1" parent="p5pr4pcypY8BXFdTyHFl-63">
          <mxGeometry x="12.499999999999545" y="190" width="95" height="40" as="geometry" />
        </mxCell>
        <mxCell id="p5pr4pcypY8BXFdTyHFl-68" value="组织过程资产" style="whiteSpace=wrap;html=1;fillColor=#FAE5C7;strokeColor=#0F8B8D;labelBackgroundColor=none;fontColor=#143642;rounded=1;" vertex="1" parent="p5pr4pcypY8BXFdTyHFl-63">
          <mxGeometry x="12.499999999999545" y="240" width="95" height="40" as="geometry" />
        </mxCell>
        <mxCell id="p5pr4pcypY8BXFdTyHFl-69" value="工具" style="swimlane;startSize=20;html=1;labelBackgroundColor=none;fillColor=#FAE5C7;strokeColor=#0F8B8D;fontColor=#143642;rounded=1;" vertex="1" parent="p5pr4pcypY8BXFdTyHFl-62">
          <mxGeometry x="120" y="20" width="120" height="300" as="geometry" />
        </mxCell>
        <mxCell id="p5pr4pcypY8BXFdTyHFl-70" value="专家判断" style="whiteSpace=wrap;html=1;labelBackgroundColor=none;fillColor=#FAE5C7;strokeColor=#0F8B8D;fontColor=#143642;rounded=1;" vertex="1" parent="p5pr4pcypY8BXFdTyHFl-69">
          <mxGeometry x="12.499999999999545" y="40" width="95" height="40" as="geometry" />
        </mxCell>
        <mxCell id="p5pr4pcypY8BXFdTyHFl-71" value="知识管理" style="whiteSpace=wrap;html=1;labelBackgroundColor=none;fillColor=#FAE5C7;strokeColor=#0F8B8D;fontColor=#143642;rounded=1;" vertex="1" parent="p5pr4pcypY8BXFdTyHFl-69">
          <mxGeometry x="12.499999999999545" y="90" width="95" height="40" as="geometry" />
        </mxCell>
        <mxCell id="p5pr4pcypY8BXFdTyHFl-72" value="信息管理" style="whiteSpace=wrap;html=1;labelBackgroundColor=none;fillColor=#FAE5C7;strokeColor=#0F8B8D;fontColor=#143642;rounded=1;" vertex="1" parent="p5pr4pcypY8BXFdTyHFl-69">
          <mxGeometry x="12.499999999999545" y="140" width="95" height="40" as="geometry" />
        </mxCell>
        <mxCell id="p5pr4pcypY8BXFdTyHFl-87" value="人际关系和团队技能" style="whiteSpace=wrap;html=1;labelBackgroundColor=none;fillColor=#FAE5C7;strokeColor=#0F8B8D;fontColor=#143642;rounded=1;" vertex="1" parent="p5pr4pcypY8BXFdTyHFl-69">
          <mxGeometry x="12.499999999999545" y="190" width="95" height="40" as="geometry" />
        </mxCell>
        <mxCell id="p5pr4pcypY8BXFdTyHFl-73" value="输出" style="swimlane;startSize=20;html=1;labelBackgroundColor=none;fillColor=#FAE5C7;strokeColor=#0F8B8D;fontColor=#143642;rounded=1;" vertex="1" parent="p5pr4pcypY8BXFdTyHFl-62">
          <mxGeometry x="240" y="20" width="120" height="300" as="geometry" />
        </mxCell>
        <mxCell id="p5pr4pcypY8BXFdTyHFl-74" value="经验教育登记册" style="whiteSpace=wrap;html=1;fillColor=#FAE5C7;strokeColor=#0F8B8D;labelBackgroundColor=none;fontColor=#143642;rounded=1;" vertex="1" parent="p5pr4pcypY8BXFdTyHFl-73">
          <mxGeometry x="12.499999999999545" y="40" width="95" height="40" as="geometry" />
        </mxCell>
        <mxCell id="p5pr4pcypY8BXFdTyHFl-78" value="项目管理计划（更新）" style="whiteSpace=wrap;html=1;fillColor=#FAE5C7;strokeColor=#0F8B8D;labelBackgroundColor=none;fontColor=#143642;rounded=1;" vertex="1" parent="p5pr4pcypY8BXFdTyHFl-73">
          <mxGeometry x="9.999999999999545" y="90" width="95" height="40" as="geometry" />
        </mxCell>
        <mxCell id="p5pr4pcypY8BXFdTyHFl-80" value="组织过程资产（更新）" style="whiteSpace=wrap;html=1;fillColor=#FAE5C7;strokeColor=#0F8B8D;labelBackgroundColor=none;fontColor=#143642;rounded=1;" vertex="1" parent="p5pr4pcypY8BXFdTyHFl-73">
          <mxGeometry x="12.499999999999545" y="140" width="95" height="40" as="geometry" />
        </mxCell>
        <mxCell id="p5pr4pcypY8BXFdTyHFl-86" style="edgeStyle=orthogonalEdgeStyle;rounded=1;orthogonalLoop=1;jettySize=auto;html=1;entryX=0;entryY=0.5;entryDx=0;entryDy=0;curved=1;fillColor=#FAE5C7;strokeColor=#A8201A;exitX=1;exitY=0.5;exitDx=0;exitDy=0;labelBackgroundColor=none;fontColor=default;" edge="1" parent="1" source="p5pr4pcypY8BXFdTyHFl-38" target="p5pr4pcypY8BXFdTyHFl-66">
          <mxGeometry relative="1" as="geometry" />
        </mxCell>
        <mxCell id="p5pr4pcypY8BXFdTyHFl-89" value="监控项目工作" style="swimlane;childLayout=stackLayout;resizeParent=1;resizeParentMax=0;startSize=20;html=1;labelBackgroundColor=none;fillColor=#FAE5C7;strokeColor=#0F8B8D;fontColor=#143642;rounded=1;" vertex="1" parent="1">
          <mxGeometry x="90" y="-790" width="360" height="420" as="geometry">
            <mxRectangle x="90" y="-790" width="140" height="30" as="alternateBounds" />
          </mxGeometry>
        </mxCell>
        <mxCell id="p5pr4pcypY8BXFdTyHFl-90" value="输入" style="swimlane;startSize=20;html=1;labelBackgroundColor=none;fillColor=#FAE5C7;strokeColor=#0F8B8D;fontColor=#143642;rounded=1;" vertex="1" parent="p5pr4pcypY8BXFdTyHFl-89">
          <mxGeometry y="20" width="120" height="400" as="geometry" />
        </mxCell>
        <mxCell id="p5pr4pcypY8BXFdTyHFl-91" value="项目管理计划" style="whiteSpace=wrap;html=1;fillColor=#FAE5C7;strokeColor=#0F8B8D;labelBackgroundColor=none;fontColor=#143642;rounded=1;" vertex="1" parent="p5pr4pcypY8BXFdTyHFl-90">
          <mxGeometry x="12.499999999999545" y="40" width="95" height="40" as="geometry" />
        </mxCell>
        <mxCell id="p5pr4pcypY8BXFdTyHFl-92" value="项目文件" style="whiteSpace=wrap;html=1;fillColor=#FAE5C7;strokeColor=#0F8B8D;labelBackgroundColor=none;fontColor=#143642;rounded=1;" vertex="1" parent="p5pr4pcypY8BXFdTyHFl-90">
          <mxGeometry x="12.499999999999545" y="90" width="95" height="40" as="geometry" />
        </mxCell>
        <mxCell id="p5pr4pcypY8BXFdTyHFl-93" value="工作绩效信息" style="whiteSpace=wrap;html=1;fillColor=#FAE5C7;strokeColor=#0F8B8D;labelBackgroundColor=none;fontColor=#143642;rounded=1;" vertex="1" parent="p5pr4pcypY8BXFdTyHFl-90">
          <mxGeometry x="12.499999999999545" y="140" width="95" height="40" as="geometry" />
        </mxCell>
        <mxCell id="p5pr4pcypY8BXFdTyHFl-94" value="协议" style="whiteSpace=wrap;html=1;fillColor=#FAE5C7;strokeColor=#0F8B8D;labelBackgroundColor=none;fontColor=#143642;rounded=1;" vertex="1" parent="p5pr4pcypY8BXFdTyHFl-90">
          <mxGeometry x="12.499999999999545" y="190" width="95" height="40" as="geometry" />
        </mxCell>
        <mxCell id="p5pr4pcypY8BXFdTyHFl-95" value="事业环境因素" style="whiteSpace=wrap;html=1;fillColor=#FAE5C7;strokeColor=#0F8B8D;labelBackgroundColor=none;fontColor=#143642;rounded=1;" vertex="1" parent="p5pr4pcypY8BXFdTyHFl-90">
          <mxGeometry x="12.499999999999545" y="240" width="95" height="40" as="geometry" />
        </mxCell>
        <mxCell id="p5pr4pcypY8BXFdTyHFl-105" value="组织过程资产" style="whiteSpace=wrap;html=1;fillColor=#FAE5C7;strokeColor=#0F8B8D;labelBackgroundColor=none;fontColor=#143642;rounded=1;" vertex="1" parent="p5pr4pcypY8BXFdTyHFl-90">
          <mxGeometry x="12.499999999999545" y="290" width="95" height="40" as="geometry" />
        </mxCell>
        <mxCell id="p5pr4pcypY8BXFdTyHFl-96" value="工具" style="swimlane;startSize=20;html=1;labelBackgroundColor=none;fillColor=#FAE5C7;strokeColor=#0F8B8D;fontColor=#143642;rounded=1;" vertex="1" parent="p5pr4pcypY8BXFdTyHFl-89">
          <mxGeometry x="120" y="20" width="120" height="400" as="geometry" />
        </mxCell>
        <mxCell id="p5pr4pcypY8BXFdTyHFl-97" value="专家判断" style="whiteSpace=wrap;html=1;labelBackgroundColor=none;fillColor=#FAE5C7;strokeColor=#0F8B8D;fontColor=#143642;rounded=1;" vertex="1" parent="p5pr4pcypY8BXFdTyHFl-96">
          <mxGeometry x="12.499999999999545" y="40" width="95" height="40" as="geometry" />
        </mxCell>
        <mxCell id="p5pr4pcypY8BXFdTyHFl-98" value="数据分析" style="whiteSpace=wrap;html=1;labelBackgroundColor=none;fillColor=#FAE5C7;strokeColor=#0F8B8D;fontColor=#143642;rounded=1;" vertex="1" parent="p5pr4pcypY8BXFdTyHFl-96">
          <mxGeometry x="12.499999999999545" y="90" width="95" height="40" as="geometry" />
        </mxCell>
        <mxCell id="p5pr4pcypY8BXFdTyHFl-99" value="决策" style="whiteSpace=wrap;html=1;labelBackgroundColor=none;fillColor=#FAE5C7;strokeColor=#0F8B8D;fontColor=#143642;rounded=1;" vertex="1" parent="p5pr4pcypY8BXFdTyHFl-96">
          <mxGeometry x="12.499999999999545" y="140" width="95" height="40" as="geometry" />
        </mxCell>
        <mxCell id="p5pr4pcypY8BXFdTyHFl-100" value="会议" style="whiteSpace=wrap;html=1;labelBackgroundColor=none;fillColor=#FAE5C7;strokeColor=#0F8B8D;fontColor=#143642;rounded=1;" vertex="1" parent="p5pr4pcypY8BXFdTyHFl-96">
          <mxGeometry x="12.499999999999545" y="190" width="95" height="40" as="geometry" />
        </mxCell>
        <mxCell id="p5pr4pcypY8BXFdTyHFl-101" value="输出" style="swimlane;startSize=20;html=1;labelBackgroundColor=none;fillColor=#FAE5C7;strokeColor=#0F8B8D;fontColor=#143642;rounded=1;" vertex="1" parent="p5pr4pcypY8BXFdTyHFl-89">
          <mxGeometry x="240" y="20" width="120" height="400" as="geometry" />
        </mxCell>
        <mxCell id="p5pr4pcypY8BXFdTyHFl-102" value="工作绩效报告" style="whiteSpace=wrap;html=1;fillColor=#FAE5C7;strokeColor=#0F8B8D;labelBackgroundColor=none;fontColor=#143642;rounded=1;" vertex="1" parent="p5pr4pcypY8BXFdTyHFl-101">
          <mxGeometry x="12.499999999999545" y="40" width="95" height="40" as="geometry" />
        </mxCell>
        <mxCell id="p5pr4pcypY8BXFdTyHFl-103" value="项目管理计划（更新）" style="whiteSpace=wrap;html=1;fillColor=#FAE5C7;strokeColor=#0F8B8D;labelBackgroundColor=none;fontColor=#143642;rounded=1;" vertex="1" parent="p5pr4pcypY8BXFdTyHFl-101">
          <mxGeometry x="9.999999999999545" y="140" width="95" height="40" as="geometry" />
        </mxCell>
        <mxCell id="p5pr4pcypY8BXFdTyHFl-104" value="组织过程资产（更新）" style="whiteSpace=wrap;html=1;fillColor=#FAE5C7;strokeColor=#0F8B8D;labelBackgroundColor=none;fontColor=#143642;rounded=1;" vertex="1" parent="p5pr4pcypY8BXFdTyHFl-101">
          <mxGeometry x="12.499999999999545" y="190" width="95" height="40" as="geometry" />
        </mxCell>
        <mxCell id="p5pr4pcypY8BXFdTyHFl-106" value="变更请求" style="whiteSpace=wrap;html=1;fillColor=#FAE5C7;strokeColor=#0F8B8D;labelBackgroundColor=none;fontColor=#143642;rounded=1;" vertex="1" parent="p5pr4pcypY8BXFdTyHFl-101">
          <mxGeometry x="12.499999999999545" y="90" width="95" height="40" as="geometry" />
        </mxCell>
        <mxCell id="p5pr4pcypY8BXFdTyHFl-107" value="实施整体变更控制" style="swimlane;childLayout=stackLayout;resizeParent=1;resizeParentMax=0;startSize=20;html=1;labelBackgroundColor=none;fillColor=#FAE5C7;strokeColor=#0F8B8D;fontColor=#143642;rounded=1;" vertex="1" parent="1">
          <mxGeometry x="90" y="-330" width="360" height="370" as="geometry">
            <mxRectangle x="1061" y="-350" width="140" height="30" as="alternateBounds" />
          </mxGeometry>
        </mxCell>
        <mxCell id="p5pr4pcypY8BXFdTyHFl-108" value="输入" style="swimlane;startSize=20;html=1;labelBackgroundColor=none;fillColor=#FAE5C7;strokeColor=#0F8B8D;fontColor=#143642;rounded=1;" vertex="1" parent="p5pr4pcypY8BXFdTyHFl-107">
          <mxGeometry y="20" width="120" height="350" as="geometry" />
        </mxCell>
        <mxCell id="p5pr4pcypY8BXFdTyHFl-109" value="项目管理计划" style="whiteSpace=wrap;html=1;fillColor=#FAE5C7;strokeColor=#0F8B8D;labelBackgroundColor=none;fontColor=#143642;rounded=1;" vertex="1" parent="p5pr4pcypY8BXFdTyHFl-108">
          <mxGeometry x="12.499999999999545" y="40" width="95" height="40" as="geometry" />
        </mxCell>
        <mxCell id="p5pr4pcypY8BXFdTyHFl-110" value="项目文件" style="whiteSpace=wrap;html=1;fillColor=#FAE5C7;strokeColor=#0F8B8D;labelBackgroundColor=none;fontColor=#143642;rounded=1;" vertex="1" parent="p5pr4pcypY8BXFdTyHFl-108">
          <mxGeometry x="12.499999999999545" y="90" width="95" height="40" as="geometry" />
        </mxCell>
        <mxCell id="p5pr4pcypY8BXFdTyHFl-111" value="工作绩效报告" style="whiteSpace=wrap;html=1;fillColor=#FAE5C7;strokeColor=#0F8B8D;labelBackgroundColor=none;fontColor=#143642;rounded=1;" vertex="1" parent="p5pr4pcypY8BXFdTyHFl-108">
          <mxGeometry x="12.499999999999545" y="140" width="95" height="40" as="geometry" />
        </mxCell>
        <mxCell id="p5pr4pcypY8BXFdTyHFl-112" value="变更请求" style="whiteSpace=wrap;html=1;fillColor=#FAE5C7;strokeColor=#0F8B8D;labelBackgroundColor=none;fontColor=#143642;rounded=1;" vertex="1" parent="p5pr4pcypY8BXFdTyHFl-108">
          <mxGeometry x="12.499999999999545" y="190" width="95" height="40" as="geometry" />
        </mxCell>
        <mxCell id="p5pr4pcypY8BXFdTyHFl-113" value="事业环境因素" style="whiteSpace=wrap;html=1;fillColor=#FAE5C7;strokeColor=#0F8B8D;labelBackgroundColor=none;fontColor=#143642;rounded=1;" vertex="1" parent="p5pr4pcypY8BXFdTyHFl-108">
          <mxGeometry x="12.499999999999545" y="240" width="95" height="40" as="geometry" />
        </mxCell>
        <mxCell id="p5pr4pcypY8BXFdTyHFl-114" value="组织过程资产" style="whiteSpace=wrap;html=1;fillColor=#FAE5C7;strokeColor=#0F8B8D;labelBackgroundColor=none;fontColor=#143642;rounded=1;" vertex="1" parent="p5pr4pcypY8BXFdTyHFl-108">
          <mxGeometry x="12.499999999999545" y="290" width="95" height="40" as="geometry" />
        </mxCell>
        <mxCell id="p5pr4pcypY8BXFdTyHFl-115" value="工具" style="swimlane;startSize=20;html=1;labelBackgroundColor=none;fillColor=#FAE5C7;strokeColor=#0F8B8D;fontColor=#143642;rounded=1;" vertex="1" parent="p5pr4pcypY8BXFdTyHFl-107">
          <mxGeometry x="120" y="20" width="120" height="350" as="geometry" />
        </mxCell>
        <mxCell id="p5pr4pcypY8BXFdTyHFl-116" value="专家判断" style="whiteSpace=wrap;html=1;labelBackgroundColor=none;fillColor=#FAE5C7;strokeColor=#0F8B8D;fontColor=#143642;rounded=1;" vertex="1" parent="p5pr4pcypY8BXFdTyHFl-115">
          <mxGeometry x="12.499999999999545" y="40" width="95" height="40" as="geometry" />
        </mxCell>
        <mxCell id="p5pr4pcypY8BXFdTyHFl-117" value="变更控制请求" style="whiteSpace=wrap;html=1;labelBackgroundColor=none;fillColor=#FAE5C7;strokeColor=#0F8B8D;fontColor=#143642;rounded=1;" vertex="1" parent="p5pr4pcypY8BXFdTyHFl-115">
          <mxGeometry x="12.499999999999545" y="90" width="95" height="40" as="geometry" />
        </mxCell>
        <mxCell id="p5pr4pcypY8BXFdTyHFl-118" value="数据分析" style="whiteSpace=wrap;html=1;labelBackgroundColor=none;fillColor=#FAE5C7;strokeColor=#0F8B8D;fontColor=#143642;rounded=1;" vertex="1" parent="p5pr4pcypY8BXFdTyHFl-115">
          <mxGeometry x="12.499999999999545" y="140" width="95" height="40" as="geometry" />
        </mxCell>
        <mxCell id="p5pr4pcypY8BXFdTyHFl-119" value="决策" style="whiteSpace=wrap;html=1;labelBackgroundColor=none;fillColor=#FAE5C7;strokeColor=#0F8B8D;fontColor=#143642;rounded=1;" vertex="1" parent="p5pr4pcypY8BXFdTyHFl-115">
          <mxGeometry x="12.499999999999545" y="190" width="95" height="40" as="geometry" />
        </mxCell>
        <mxCell id="p5pr4pcypY8BXFdTyHFl-126" value="会议" style="whiteSpace=wrap;html=1;labelBackgroundColor=none;fillColor=#FAE5C7;strokeColor=#0F8B8D;fontColor=#143642;rounded=1;" vertex="1" parent="p5pr4pcypY8BXFdTyHFl-115">
          <mxGeometry x="12.499999999999545" y="240" width="95" height="40" as="geometry" />
        </mxCell>
        <mxCell id="p5pr4pcypY8BXFdTyHFl-120" value="输出" style="swimlane;startSize=20;html=1;labelBackgroundColor=none;fillColor=#FAE5C7;strokeColor=#0F8B8D;fontColor=#143642;rounded=1;" vertex="1" parent="p5pr4pcypY8BXFdTyHFl-107">
          <mxGeometry x="240" y="20" width="120" height="350" as="geometry" />
        </mxCell>
        <mxCell id="p5pr4pcypY8BXFdTyHFl-121" value="批准的变更请求" style="whiteSpace=wrap;html=1;fillColor=#FAE5C7;strokeColor=#0F8B8D;labelBackgroundColor=none;fontColor=#143642;rounded=1;" vertex="1" parent="p5pr4pcypY8BXFdTyHFl-120">
          <mxGeometry x="12.499999999999545" y="40" width="95" height="40" as="geometry" />
        </mxCell>
        <mxCell id="p5pr4pcypY8BXFdTyHFl-122" value="项目管理计划（更新）" style="whiteSpace=wrap;html=1;fillColor=#FAE5C7;strokeColor=#0F8B8D;labelBackgroundColor=none;fontColor=#143642;rounded=1;" vertex="1" parent="p5pr4pcypY8BXFdTyHFl-120">
          <mxGeometry x="9.999999999999545" y="90" width="95" height="40" as="geometry" />
        </mxCell>
        <mxCell id="p5pr4pcypY8BXFdTyHFl-123" value="项目文件（更新）" style="whiteSpace=wrap;html=1;fillColor=#FAE5C7;strokeColor=#0F8B8D;labelBackgroundColor=none;fontColor=#143642;rounded=1;" vertex="1" parent="p5pr4pcypY8BXFdTyHFl-120">
          <mxGeometry x="12.499999999999545" y="140" width="95" height="40" as="geometry" />
        </mxCell>
        <mxCell id="p5pr4pcypY8BXFdTyHFl-129" value="结束项目或阶段" style="swimlane;childLayout=stackLayout;resizeParent=1;resizeParentMax=0;startSize=20;html=1;labelBackgroundColor=none;fillColor=#FAE5C7;strokeColor=#0F8B8D;fontColor=#143642;rounded=1;" vertex="1" parent="1">
          <mxGeometry x="500" y="-790" width="360" height="470" as="geometry">
            <mxRectangle x="90" y="-790" width="140" height="30" as="alternateBounds" />
          </mxGeometry>
        </mxCell>
        <mxCell id="p5pr4pcypY8BXFdTyHFl-130" value="输入" style="swimlane;startSize=20;html=1;labelBackgroundColor=none;fillColor=#FAE5C7;strokeColor=#0F8B8D;fontColor=#143642;rounded=1;" vertex="1" parent="p5pr4pcypY8BXFdTyHFl-129">
          <mxGeometry y="20" width="120" height="450" as="geometry" />
        </mxCell>
        <mxCell id="p5pr4pcypY8BXFdTyHFl-131" value="项目管理计划" style="whiteSpace=wrap;html=1;fillColor=#FAE5C7;strokeColor=#0F8B8D;labelBackgroundColor=none;fontColor=#143642;rounded=1;" vertex="1" parent="p5pr4pcypY8BXFdTyHFl-130">
          <mxGeometry x="12.499999999999545" y="94" width="95" height="40" as="geometry" />
        </mxCell>
        <mxCell id="p5pr4pcypY8BXFdTyHFl-132" value="项目文件" style="whiteSpace=wrap;html=1;fillColor=#FAE5C7;strokeColor=#0F8B8D;labelBackgroundColor=none;fontColor=#143642;rounded=1;" vertex="1" parent="p5pr4pcypY8BXFdTyHFl-130">
          <mxGeometry x="12.499999999999545" y="144" width="95" height="40" as="geometry" />
        </mxCell>
        <mxCell id="p5pr4pcypY8BXFdTyHFl-133" value="验收的可交付成果" style="whiteSpace=wrap;html=1;fillColor=#FAE5C7;strokeColor=#0F8B8D;labelBackgroundColor=none;fontColor=#143642;rounded=1;" vertex="1" parent="p5pr4pcypY8BXFdTyHFl-130">
          <mxGeometry x="12.499999999999545" y="194" width="95" height="40" as="geometry" />
        </mxCell>
        <mxCell id="p5pr4pcypY8BXFdTyHFl-134" value="立项管理文件" style="whiteSpace=wrap;html=1;fillColor=#FAE5C7;strokeColor=#0F8B8D;labelBackgroundColor=none;fontColor=#143642;rounded=1;" vertex="1" parent="p5pr4pcypY8BXFdTyHFl-130">
          <mxGeometry x="12.499999999999545" y="244" width="95" height="40" as="geometry" />
        </mxCell>
        <mxCell id="p5pr4pcypY8BXFdTyHFl-135" value="协议" style="whiteSpace=wrap;html=1;fillColor=#FAE5C7;strokeColor=#0F8B8D;labelBackgroundColor=none;fontColor=#143642;rounded=1;" vertex="1" parent="p5pr4pcypY8BXFdTyHFl-130">
          <mxGeometry x="12.499999999999545" y="294" width="95" height="40" as="geometry" />
        </mxCell>
        <mxCell id="p5pr4pcypY8BXFdTyHFl-136" value="采购文件" style="whiteSpace=wrap;html=1;fillColor=#FAE5C7;strokeColor=#0F8B8D;labelBackgroundColor=none;fontColor=#143642;rounded=1;" vertex="1" parent="p5pr4pcypY8BXFdTyHFl-130">
          <mxGeometry x="12.499999999999545" y="344" width="95" height="40" as="geometry" />
        </mxCell>
        <mxCell id="p5pr4pcypY8BXFdTyHFl-147" value="组织过程资产" style="whiteSpace=wrap;html=1;fillColor=#FAE5C7;strokeColor=#0F8B8D;labelBackgroundColor=none;fontColor=#143642;rounded=1;" vertex="1" parent="p5pr4pcypY8BXFdTyHFl-130">
          <mxGeometry x="12.499999999999545" y="394" width="95" height="40" as="geometry" />
        </mxCell>
        <mxCell id="p5pr4pcypY8BXFdTyHFl-156" value="项目章程" style="whiteSpace=wrap;html=1;fillColor=#FAE5C7;strokeColor=#0F8B8D;labelBackgroundColor=none;fontColor=#143642;rounded=1;" vertex="1" parent="p5pr4pcypY8BXFdTyHFl-130">
          <mxGeometry x="12.499999999999545" y="40" width="95" height="40" as="geometry" />
        </mxCell>
        <mxCell id="p5pr4pcypY8BXFdTyHFl-137" value="工具" style="swimlane;startSize=20;html=1;labelBackgroundColor=none;fillColor=#FAE5C7;strokeColor=#0F8B8D;fontColor=#143642;rounded=1;" vertex="1" parent="p5pr4pcypY8BXFdTyHFl-129">
          <mxGeometry x="120" y="20" width="120" height="450" as="geometry" />
        </mxCell>
        <mxCell id="p5pr4pcypY8BXFdTyHFl-138" value="专家判断" style="whiteSpace=wrap;html=1;labelBackgroundColor=none;fillColor=#FAE5C7;strokeColor=#0F8B8D;fontColor=#143642;rounded=1;" vertex="1" parent="p5pr4pcypY8BXFdTyHFl-137">
          <mxGeometry x="12.499999999999545" y="40" width="95" height="40" as="geometry" />
        </mxCell>
        <mxCell id="p5pr4pcypY8BXFdTyHFl-139" value="数据分析" style="whiteSpace=wrap;html=1;labelBackgroundColor=none;fillColor=#FAE5C7;strokeColor=#0F8B8D;fontColor=#143642;rounded=1;" vertex="1" parent="p5pr4pcypY8BXFdTyHFl-137">
          <mxGeometry x="12.499999999999545" y="90" width="95" height="40" as="geometry" />
        </mxCell>
        <mxCell id="p5pr4pcypY8BXFdTyHFl-141" value="会议" style="whiteSpace=wrap;html=1;labelBackgroundColor=none;fillColor=#FAE5C7;strokeColor=#0F8B8D;fontColor=#143642;rounded=1;" vertex="1" parent="p5pr4pcypY8BXFdTyHFl-137">
          <mxGeometry x="12.499999999999545" y="146" width="95" height="40" as="geometry" />
        </mxCell>
        <mxCell id="p5pr4pcypY8BXFdTyHFl-142" value="输出" style="swimlane;startSize=20;html=1;labelBackgroundColor=none;fillColor=#FAE5C7;strokeColor=#0F8B8D;fontColor=#143642;rounded=1;" vertex="1" parent="p5pr4pcypY8BXFdTyHFl-129">
          <mxGeometry x="240" y="20" width="120" height="450" as="geometry" />
        </mxCell>
        <mxCell id="p5pr4pcypY8BXFdTyHFl-143" value="项目文件（更新）" style="whiteSpace=wrap;html=1;fillColor=#FAE5C7;strokeColor=#0F8B8D;labelBackgroundColor=none;fontColor=#143642;rounded=1;" vertex="1" parent="p5pr4pcypY8BXFdTyHFl-142">
          <mxGeometry x="12.499999999999545" y="40" width="95" height="40" as="geometry" />
        </mxCell>
        <mxCell id="p5pr4pcypY8BXFdTyHFl-144" value="项目最终报告" style="whiteSpace=wrap;html=1;fillColor=#FAE5C7;strokeColor=#0F8B8D;labelBackgroundColor=none;fontColor=#143642;rounded=1;" vertex="1" parent="p5pr4pcypY8BXFdTyHFl-142">
          <mxGeometry x="9.999999999999545" y="140" width="95" height="40" as="geometry" />
        </mxCell>
        <mxCell id="p5pr4pcypY8BXFdTyHFl-145" value="组织过程资产（更新）" style="whiteSpace=wrap;html=1;fillColor=#FAE5C7;strokeColor=#0F8B8D;labelBackgroundColor=none;fontColor=#143642;rounded=1;" vertex="1" parent="p5pr4pcypY8BXFdTyHFl-142">
          <mxGeometry x="12.499999999999545" y="190" width="95" height="40" as="geometry" />
        </mxCell>
        <mxCell id="p5pr4pcypY8BXFdTyHFl-146" value="最终产品，服务或成果" style="whiteSpace=wrap;html=1;fillColor=#FAE5C7;strokeColor=#0F8B8D;labelBackgroundColor=none;fontColor=#143642;rounded=1;" vertex="1" parent="p5pr4pcypY8BXFdTyHFl-142">
          <mxGeometry x="12.499999999999545" y="90" width="95" height="40" as="geometry" />
        </mxCell>
      </root>
    </mxGraphModel>
  </diagram>
</mxfile>
